<?xml version="1.0" encoding="UTF-8"?>
<svg version="1.1" xmlns="http://www.w3.org/2000/svg" width="500" height="500">
<path d="M0 0 C28.98795564 25.9735386 46.46207099 60.36137507 48.7421875 99.45703125 C50.34103793 132.35459002 40.60021793 164.24414643 20.7421875 190.45703125 C13.54840102 188.34658505 6.4229601 186.06635156 -0.6875 183.69140625 C-1.75791534 183.33492004 -2.82833069 182.97843384 -3.93118286 182.61114502 C-6.18874269 181.85885077 -8.44605287 181.10580699 -10.703125 180.35205078 C-14.08780423 179.2220575 -17.47352466 178.09522863 -20.859375 176.96875 C-23.07297801 176.2306527 -25.2865202 175.49237296 -27.5 174.75390625 C-28.58166443 174.3940564 -29.66332886 174.03420654 -30.777771 173.66345215 C-35.93273897 171.94016014 -41.06742038 170.17982899 -46.17285156 168.31445312 C-47.08906281 167.98213684 -48.00527405 167.64982056 -48.94924927 167.30743408 C-50.64914355 166.68681865 -52.34534039 166.05593785 -54.03683472 165.41278076 C-55.16353073 165.00204315 -55.16353073 165.00204315 -56.31298828 164.58300781 C-56.95841583 164.34020081 -57.60384338 164.0973938 -58.26882935 163.847229 C-60.81469053 163.34778319 -62.76516807 163.82611449 -65.2578125 164.45703125 C-63.09380141 172.89273603 -60.42671594 181.10112443 -57.58984375 189.33203125 C-57.14530065 190.63177174 -56.70119161 191.93166076 -56.25749207 193.23168945 C-54.62800625 198.00350956 -52.99213014 202.77313007 -51.35418701 207.54205322 C-49.96022597 211.60063584 -48.56979633 215.66038937 -47.18463707 219.72198486 C-46.5367066 221.61714545 -45.88348064 223.51049291 -45.23017883 225.40380859 C-44.83944687 226.54930176 -44.4487149 227.69479492 -44.04614258 228.875 C-43.69989334 229.88328857 -43.3536441 230.89157715 -42.99690247 231.93041992 C-42.2578125 234.45703125 -42.2578125 234.45703125 -42.2578125 237.45703125 C-54.58825511 242.66629689 -68.84518965 245.98572386 -82.2578125 246.45703125 C-84.15080078 246.534375 -84.15080078 246.534375 -86.08203125 246.61328125 C-126.86231436 247.73004356 -161.92479057 232.50022427 -191.6015625 205.07421875 C-216.42196794 180.61881928 -231.11614819 145.41008501 -231.49926758 110.7121582 C-231.52843183 98.32235043 -231.20247524 86.52009352 -228.2578125 74.45703125 C-228.08620605 73.75078613 -227.91459961 73.04454102 -227.73779297 72.31689453 C-222.40196885 51.14049156 -212.62477987 31.96035064 -198.2578125 15.45703125 C-197.46117187 14.51601562 -196.66453125 13.575 -195.84375 12.60546875 C-184.97064144 0.0432145 -171.85710034 -9.70282419 -157.2578125 -17.54296875 C-156.66564941 -17.86104492 -156.07348633 -18.17912109 -155.46337891 -18.50683594 C-105.19785815 -44.90140568 -42.83872871 -36.29215741 0 0 Z M-107.2578125 67.45703125 C-110.11927499 76.46351714 -112.6507294 85.51431496 -114.96484375 94.67578125 C-115.12791204 95.3195723 -115.29098034 95.96336334 -115.4589901 96.62666321 C-116.31745925 100.0161277 -117.1720765 103.40653365 -118.02319336 106.79785156 C-118.89906077 110.28469862 -119.78805034 113.76806432 -120.67992115 117.25084686 C-121.36902725 119.95141865 -122.04865999 122.65430947 -122.72571373 125.35792542 C-123.20600404 127.26566934 -123.69627177 129.17089248 -124.1867218 131.0760498 C-124.47419785 132.23495728 -124.76167389 133.39386475 -125.05786133 134.58789062 C-125.31449051 135.60347046 -125.57111969 136.61905029 -125.83552551 137.66540527 C-126.27698044 140.58374538 -126.02099936 142.62568761 -125.2578125 145.45703125 C-121.84642247 146.55354948 -119.05125669 146.39918598 -115.5078125 146.01953125 C-114.03054687 145.86677734 -114.03054687 145.86677734 -112.5234375 145.7109375 C-111.77578125 145.62714844 -111.028125 145.54335938 -110.2578125 145.45703125 C-107.15447726 137.88763936 -105.21934267 130.03684583 -103.2109375 122.125 C-102.83184158 120.64142431 -102.45258681 119.15788921 -102.07318115 117.6743927 C-101.28340036 114.58133555 -100.49725407 111.48738107 -99.71337891 108.39282227 C-98.70770888 104.42493927 -97.69026713 100.46017797 -96.66981888 96.49607372 C-95.885213 93.4409477 -95.10813776 90.38394394 -94.33321381 87.32634926 C-93.96105746 85.86282519 -93.58623886 84.39997545 -93.20871735 82.93782616 C-92.68367974 80.90080109 -92.16915007 78.86139896 -91.65722656 76.82104492 C-91.21446381 75.08186043 -91.21446381 75.08186043 -90.76275635 73.30754089 C-90.01330792 70.39578635 -90.01330792 70.39578635 -91.2578125 67.45703125 C-96.84549718 66.38704908 -101.6450799 66.66856205 -107.2578125 67.45703125 Z M-212.2578125 77.45703125 C-212.39633907 80.06744507 -212.47102149 82.64938358 -212.49609375 85.26171875 C-212.5041655 86.05546906 -212.51223724 86.84921936 -212.52055359 87.66702271 C-212.53442194 89.35676883 -212.54513171 91.0465433 -212.55297852 92.73632812 C-212.57001197 95.28702807 -212.61384707 97.83636977 -212.65820312 100.38671875 C-212.86993212 114.94547534 -212.86993212 114.94547534 -206.40869141 127.63989258 C-200.14535543 133.83086332 -193.37375263 135.5812763 -184.7578125 135.83203125 C-176.14187237 135.5812763 -169.37026957 133.83086332 -163.10693359 127.63989258 C-156.00095141 119.251381 -156.72124327 108.21660823 -156.90112305 97.87402344 C-156.94582523 95.3025366 -156.96266665 92.73198648 -156.97460938 90.16015625 C-156.98801056 88.52733008 -157.00292713 86.89451549 -157.01953125 85.26171875 C-157.02691818 84.4920578 -157.03430511 83.72239685 -157.04191589 82.92941284 C-156.78838894 79.39803546 -156.78838894 79.39803546 -158.2578125 76.45703125 C-159.66129985 76.35842994 -161.06961727 76.32624188 -162.4765625 76.32421875 C-163.32605469 76.32292969 -164.17554688 76.32164062 -165.05078125 76.3203125 C-165.94410156 76.32417969 -166.83742187 76.32804687 -167.7578125 76.33203125 C-169.09779297 76.32623047 -169.09779297 76.32623047 -170.46484375 76.3203125 C-171.73908203 76.32224609 -171.73908203 76.32224609 -173.0390625 76.32421875 C-173.82345703 76.32534668 -174.60785156 76.32647461 -175.41601562 76.32763672 C-177.27534238 76.25595683 -177.27534238 76.25595683 -178.2578125 77.45703125 C-178.38078785 80.01362398 -178.44388058 82.54741719 -178.46875 85.10546875 C-178.49681981 86.6836041 -178.52548428 88.26172897 -178.5546875 89.83984375 C-178.59596672 92.33723649 -178.63283784 94.83443374 -178.65917969 97.33203125 C-178.68675792 99.73609274 -178.73263072 102.13925316 -178.78125 104.54296875 C-178.78450287 105.28993011 -178.78775574 106.03689148 -178.79110718 106.80648804 C-178.86150048 109.76929701 -178.92641246 111.94330515 -180.55712891 114.47119141 C-183.44010061 116.14237138 -186.1314623 115.10589639 -189.2578125 114.45703125 C-190.45736032 110.8583878 -190.46885352 107.51170104 -190.5390625 103.76171875 C-190.55747192 103.01366974 -190.57588135 102.26562073 -190.59484863 101.49490356 C-190.67352319 98.29476175 -190.74147462 95.09441455 -190.81005859 91.89404297 C-190.86165159 89.55815801 -190.91893266 87.22246128 -190.9765625 84.88671875 C-190.99013794 84.1575827 -191.00371338 83.42844666 -191.0177002 82.67721558 C-190.80739 79.27800738 -190.80739 79.27800738 -192.2578125 76.45703125 C-193.66129985 76.35842994 -195.06961727 76.32624188 -196.4765625 76.32421875 C-197.32605469 76.32292969 -198.17554688 76.32164062 -199.05078125 76.3203125 C-199.94410156 76.32417969 -200.83742188 76.32804687 -201.7578125 76.33203125 C-203.09779297 76.32623047 -203.09779297 76.32623047 -204.46484375 76.3203125 C-205.73908203 76.32224609 -205.73908203 76.32224609 -207.0390625 76.32421875 C-208.2156543 76.32591064 -208.2156543 76.32591064 -209.41601562 76.32763672 C-211.27534238 76.25595683 -211.27534238 76.25595683 -212.2578125 77.45703125 Z M-151.2578125 77.45703125 C-151.35669042 79.2008566 -151.38580282 80.94868668 -151.38720703 82.6953125 C-151.39035919 83.81317139 -151.39351135 84.93103027 -151.39675903 86.08276367 C-151.3947348 87.29939697 -151.39271057 88.51603027 -151.390625 89.76953125 C-151.39158173 91.00872314 -151.39253845 92.24791504 -151.39352417 93.5246582 C-151.39420624 96.15091406 -151.39284788 98.77707758 -151.38818359 101.40332031 C-151.38248631 104.77631839 -151.38576552 108.1492369 -151.39175606 111.52223206 C-151.3962302 114.72966802 -151.39310132 117.93709425 -151.390625 121.14453125 C-151.39264923 122.36116455 -151.39467346 123.57779785 -151.39675903 124.83129883 C-151.39360687 125.94915771 -151.39045471 127.0670166 -151.38720703 128.21875 C-151.38641144 129.20834717 -151.38561584 130.19794434 -151.38479614 131.2175293 C-151.50882098 133.42800375 -151.50882098 133.42800375 -150.2578125 134.45703125 C-147.26601527 134.61030559 -144.31324926 134.68868374 -141.3203125 134.70703125 C-140.48306641 134.72765625 -139.64582031 134.74828125 -138.78320312 134.76953125 C-137.98205078 134.7746875 -137.18089844 134.77984375 -136.35546875 134.78515625 C-135.61820557 134.79450195 -134.88094238 134.80384766 -134.12133789 134.81347656 C-133.50637451 134.69584961 -132.89141113 134.57822266 -132.2578125 134.45703125 C-130.0515916 131.1476999 -130.00561745 130.13217251 -129.99902344 126.28295898 C-129.99271912 125.22854111 -129.98641479 124.17412323 -129.97991943 123.0877533 C-129.9839679 121.95020096 -129.98801636 120.81264862 -129.9921875 119.640625 C-129.99027405 118.47322281 -129.9883606 117.30582062 -129.98638916 116.1030426 C-129.98502749 113.63420394 -129.98872264 111.16535812 -129.99707031 108.6965332 C-130.00777939 104.9062502 -129.99716915 101.11644017 -129.984375 97.32617188 C-129.98569641 94.93098853 -129.98825842 92.53580548 -129.9921875 90.140625 C-129.98813904 89.00104843 -129.98409058 87.86147186 -129.97991943 86.68736267 C-129.98622375 85.63609695 -129.99252808 84.58483124 -129.99902344 83.50170898 C-130.00061462 82.57365952 -130.00220581 81.64561005 -130.00384521 80.68943787 C-130.04630895 78.25343661 -130.04630895 78.25343661 -132.2578125 76.45703125 C-134.17736451 76.16423385 -134.17736451 76.16423385 -136.35546875 76.2265625 C-137.55719727 76.22946289 -137.55719727 76.22946289 -138.78320312 76.23242188 C-139.62044922 76.24466797 -140.45769531 76.25691406 -141.3203125 76.26953125 C-142.58198242 76.27049805 -142.58198242 76.27049805 -143.86914062 76.27148438 C-147.88297118 75.90395967 -147.88297118 75.90395967 -151.2578125 77.45703125 Z M-85.2578125 76.45703125 C-86.74991149 79.44122924 -86.42061652 82.50074847 -86.42578125 85.7734375 C-86.42910965 86.50392807 -86.43243805 87.23441864 -86.43586731 87.98704529 C-86.44093646 89.53798798 -86.44327564 91.08894161 -86.44311523 92.63989258 C-86.44528157 94.98602998 -86.46338044 97.33168148 -86.48242188 99.67773438 C-86.52738461 111.08950452 -86.51807274 120.76305806 -78.2578125 129.45703125 C-70.40274747 135.80793489 -62.04074289 136.33601099 -52.2578125 135.45703125 C-44.58931377 133.9711973 -39.88602907 130.8393943 -34.81640625 124.96875 C-31.1811646 119.11045331 -30.96657247 113.19388107 -31.02734375 106.49609375 C-31.02780197 105.66492035 -31.02826019 104.83374695 -31.0287323 103.97738647 C-31.03173568 102.23442136 -31.03956404 100.49145848 -31.05200195 98.74853516 C-31.07040033 96.06924045 -31.0725104 93.39028915 -31.07226562 90.7109375 C-31.0771762 89.01431991 -31.08300249 87.31770466 -31.08984375 85.62109375 C-31.09095657 84.8170108 -31.0920694 84.01292786 -31.09321594 83.18447876 C-30.77884754 79.51987972 -30.77884754 79.51987972 -32.2578125 76.45703125 C-33.67351373 76.37051514 -35.0934075 76.34998221 -36.51171875 76.359375 C-37.79272461 76.36420898 -37.79272461 76.36420898 -39.09960938 76.36914062 C-39.99744141 76.37751953 -40.89527344 76.38589844 -41.8203125 76.39453125 C-42.72201172 76.39904297 -43.62371094 76.40355469 -44.55273438 76.40820312 C-46.78782564 76.420029 -49.02278687 76.43650905 -51.2578125 76.45703125 C-52.80588215 79.55317054 -52.43560581 82.83828165 -52.46875 86.23828125 C-52.49680803 87.81771888 -52.52547242 89.39714584 -52.5546875 90.9765625 C-52.59603754 93.47184063 -52.63291654 95.96691712 -52.65917969 98.46240234 C-52.68669656 100.86728217 -52.73255374 103.2712498 -52.78125 105.67578125 C-52.78450287 106.42476685 -52.78775574 107.17375244 -52.79110718 107.94543457 C-52.84130859 110.04882812 -52.84130859 110.04882812 -53.2578125 113.45703125 C-56.9019899 115.88648285 -58.97022522 115.618827 -63.2578125 115.45703125 C-64.26579926 111.23532153 -64.45444271 107.10415557 -64.5390625 102.78515625 C-64.55747192 102.06213318 -64.57588135 101.33911011 -64.59484863 100.59417725 C-64.67323882 97.5152403 -64.74160412 94.43610527 -64.81005859 91.35693359 C-64.86162266 89.10372581 -64.91889047 86.85071462 -64.9765625 84.59765625 C-64.99013794 83.89666809 -65.00371338 83.19567993 -65.0177002 82.47344971 C-64.82698622 79.18130608 -64.82698622 79.18130608 -66.2578125 76.45703125 C-67.67351373 76.37051514 -69.0934075 76.34998221 -70.51171875 76.359375 C-71.79272461 76.36420898 -71.79272461 76.36420898 -73.09960938 76.36914062 C-73.99744141 76.37751953 -74.89527344 76.38589844 -75.8203125 76.39453125 C-76.72201172 76.39904297 -77.62371094 76.40355469 -78.55273438 76.40820312 C-80.78782564 76.420029 -83.02278687 76.43650905 -85.2578125 76.45703125 Z M-28.2578125 79.45703125 C-20.44018993 92.07453058 -20.44018993 92.07453058 -12.2578125 104.45703125 C-14.61031937 108.99980313 -17.09196067 113.28449766 -20.07421875 117.44140625 C-20.57526123 118.14330078 -21.07630371 118.84519531 -21.5925293 119.56835938 C-22.6111038 120.98264256 -23.64239486 122.38786211 -24.68676758 123.78320312 C-27.63054417 127.7045112 -27.63054417 127.7045112 -28.078125 132.44140625 C-27.80742187 133.1065625 -27.53671875 133.77171875 -27.2578125 134.45703125 C-15.22514001 136.05684325 -15.22514001 136.05684325 -4.37109375 132.30078125 C-1.24390922 127.75598929 -1.24390922 127.75598929 -0.2578125 122.45703125 C1.75564806 124.31561023 3.51231903 126.07188739 4.921875 128.43359375 C7.6208645 132.86244485 7.6208645 132.86244485 12.10302734 135.10742188 C14.81415676 135.24386933 17.41043343 135.15781757 20.1171875 134.95703125 C21.04402344 134.9209375 21.97085938 134.88484375 22.92578125 134.84765625 C25.20223811 134.75378174 27.47001965 134.62274335 29.7421875 134.45703125 C30.5677484 132.21846005 30.5677484 132.21846005 30.7421875 129.45703125 C29.39866179 126.74231457 29.39866179 126.74231457 27.3046875 124.11328125 C26.57507813 123.11425781 25.84546875 122.11523438 25.09375 121.0859375 C23.92972656 119.53712891 23.92972656 119.53712891 22.7421875 117.95703125 C21.207624 115.91519509 19.68611213 113.86346515 18.1796875 111.80078125 C17.49777344 110.89521484 16.81585938 109.98964844 16.11328125 109.05664062 C14.7421875 106.45703125 14.7421875 106.45703125 14.89331055 103.83178711 C16.15574345 100.30009748 18.32135677 97.48772045 20.5546875 94.51953125 C21.86950775 92.73747679 23.18168922 90.95371832 24.48681641 89.16455078 C25.68224288 87.5385662 26.90492387 85.93272384 28.12890625 84.328125 C30.02535082 81.58453936 30.02535082 81.58453936 29.4921875 78.58203125 C29.2446875 77.88078125 28.9971875 77.17953125 28.7421875 76.45703125 C16.67752999 74.83587691 16.67752999 74.83587691 5.85546875 78.68359375 C4.14863774 81.22415982 2.82451275 83.5980589 1.7421875 86.45703125 C-0.47838121 84.39809497 -1.85010579 82.44271984 -3.30859375 79.80859375 C-4.93634563 77.4922949 -5.74323535 76.59791004 -8.50146484 75.84277344 C-11.18125718 75.65902211 -13.76292964 75.69800784 -16.4453125 75.83203125 C-17.35990234 75.83847656 -18.27449219 75.84492188 -19.21679688 75.8515625 C-24.70101659 75.66085446 -24.70101659 75.66085446 -28.2578125 79.45703125 Z " fill="#FFFFFF" transform="translate(321.2578125,115.54296875)"/>
<path d="M0 0 C2.98828125 0.99609375 2.98828125 0.99609375 5.9765625 1.9921875 C6.95381287 2.3178923 6.95381287 2.3178923 7.95080566 2.650177 C11.768017 3.92245162 15.58505793 5.19523448 19.40185547 6.46875 C28.20185864 9.40432431 37.00370483 12.33418501 45.80938721 15.25268555 C71.9626979 23.92191881 98.07797013 32.65867761 124 42 C120.55587824 45.78390059 116.63491184 48.41525532 112.390625 51.203125 C111.66381531 51.6857782 110.93700562 52.1684314 110.18817139 52.66571045 C107.87831317 54.19818447 105.56424762 55.72416474 103.25 57.25 C101.67810285 58.29124021 100.10648507 59.33290232 98.53515625 60.375 C94.69332245 62.92156392 90.84770364 65.46231466 87 68 C87.49834698 72.00892462 88.26241603 73.73292761 91.4296875 76.234375 C92.13722168 76.80389893 92.84475586 77.37342285 93.57373047 77.96020508 C94.33314941 78.5508374 95.09256836 79.14146973 95.875 79.75 C96.64859863 80.36834717 97.42219727 80.98669434 98.21923828 81.6237793 C99.7672644 82.8606841 101.31912905 84.09280183 102.875 85.31982422 C105.5701636 87.4508118 108.22356399 89.62737759 110.875 91.8125 C112.58331803 93.20835206 114.29165084 94.60418604 116 96 C116.84175781 96.68964844 117.68351562 97.37929688 118.55078125 98.08984375 C121.36524146 100.39561634 124.18211938 102.69841058 127 105 C127.98734131 105.80703369 127.98734131 105.80703369 128.99462891 106.63037109 C131.16188283 108.400894 133.33077735 110.16938993 135.5 111.9375 C136.19504639 112.5056543 136.89009277 113.07380859 137.60620117 113.65917969 C138.26209229 114.19317383 138.9179834 114.72716797 139.59375 115.27734375 C140.17833984 115.75421631 140.76292969 116.23108887 141.36523438 116.72241211 C142.85614151 117.88757295 144.42559817 118.95039878 146 120 C145.52850038 124.2604029 142.85480096 126.56305366 139.94140625 129.421875 C139.18488014 130.17914886 139.18488014 130.17914886 138.41307068 130.95172119 C137.34822546 132.01423066 136.2796971 133.07306 135.20776367 134.12841797 C133.56311218 135.74939663 131.93226613 137.3833684 130.30273438 139.01953125 C129.26641616 140.05027522 128.22933266 141.08025045 127.19140625 142.109375 C126.4569503 142.84519806 126.4569503 142.84519806 125.70765686 143.59588623 C122.23104425 147 122.23104425 147 120 147 C118.276629 144.9726835 116.6618929 142.93468615 115.0625 140.8125 C111.31828099 135.93907209 107.50574083 131.1609764 103.5 126.5 C99.7173036 122.08494816 96.06733863 117.59074506 92.5 113 C87.97993049 107.18500918 83.29522474 101.53374445 78.5078125 95.9375 C75.98087458 92.97759764 73.48619071 89.99412215 71 87 C68.58079293 87.37734386 67.31131626 87.6642378 65.62130737 89.48695374 C65.20986481 90.12426926 64.79842224 90.76158478 64.37451172 91.41821289 C63.90077118 92.13888443 63.42703064 92.85955597 62.93893433 93.60206604 C62.19185715 94.77550819 62.19185715 94.77550819 61.4296875 95.97265625 C60.90738556 96.77029892 60.38508362 97.56794159 59.84695435 98.38975525 C58.17851937 100.94029477 56.52573547 103.50047598 54.875 106.0625 C53.21553721 108.62697175 51.55279899 111.18910147 49.88162231 113.74595642 C48.84156574 115.33822541 47.80856923 116.93513145 46.78317261 118.53688049 C46.31573639 119.25439987 45.84830017 119.97191925 45.36669922 120.71118164 C44.95684784 121.34770157 44.54699646 121.9842215 44.12472534 122.64002991 C43.75356598 123.08882004 43.38240662 123.53761017 43 124 C42.34 124 41.68 124 41 124 C40.67808182 123.04455292 40.35616364 122.08910583 40.02449036 121.10470581 C36.9243476 111.90392679 33.82325013 102.70346999 30.72131824 93.50329399 C29.12829985 88.7783881 27.53556876 84.05338585 25.94360352 79.328125 C24.40278081 74.75474652 22.86119078 70.18162737 21.31899643 65.60871124 C20.7025231 63.78054475 20.08624359 61.95231288 19.47015762 60.12401581 C16.06915415 50.03303814 12.6469054 39.95004197 9.17333984 29.88378906 C8.867517 28.99611155 8.56169416 28.10843403 8.24660397 27.19385719 C6.79301952 22.97496843 5.33517715 18.75765971 3.86885071 14.54318237 C3.35337158 13.04985161 2.83807647 11.5564573 2.32299805 10.06298828 C2.08570417 9.38667988 1.8484103 8.71037148 1.6039257 8.01356888 C0.63718411 5.19706771 0 3.00342182 0 0 Z " fill="#FFFFFF" transform="translate(264,286)"/>
</svg>
