<?xml version="1.0" encoding="UTF-8"?>
<svg version="1.1" xmlns="http://www.w3.org/2000/svg" width="500" height="500">
<path d="M0 0 C0.81484863 0.03577148 1.62969727 0.07154297 2.46923828 0.10839844 C30.63062913 1.55908862 57.24488524 9.71549456 82 23 C83.73636719 23.90492187 83.73636719 23.90492187 85.5078125 24.828125 C127.31491076 47.49347667 158.48584296 88.78440916 172 134 C176.81350414 151.49065364 179.41160153 168.96716249 179.3125 187.125 C179.31034485 187.84266541 179.3081897 188.56033081 179.30596924 189.29974365 C179.2479813 201.40179351 178.52320638 213.13977787 176 225 C175.81195801 225.8976709 175.62391602 226.7953418 175.43017578 227.72021484 C167.8277596 262.68407158 150.7588532 293.36565694 126 319 C125.06871058 319.99451097 124.13772464 320.98930622 123.20703125 321.984375 C93.1573864 353.60075887 47.18483532 373.43553833 3.76416016 375.12597656 C-43.46535392 376.16862896 -86.01625612 364.86312102 -124 336 C-124.55913086 335.57992676 -125.11826172 335.15985352 -125.69433594 334.72705078 C-131.74872525 330.15724116 -131.74872525 330.15724116 -134 328 C-134 327.34 -134 326.68 -134 326 C-134.56589844 325.75765625 -135.13179687 325.5153125 -135.71484375 325.265625 C-145.33278213 319.93876682 -152.51708811 308.66400491 -159 300 C-159.62648437 299.16855469 -160.25296875 298.33710938 -160.8984375 297.48046875 C-189.71879949 257.76790422 -201.33690249 207.39889457 -194 159 C-187.37141314 120.54624983 -170.95082801 86.36030079 -144 58 C-143.52191895 57.4946875 -143.04383789 56.989375 -142.55126953 56.46875 C-105.92315645 18.00287423 -52.92592128 -2.35327861 0 0 Z " fill="#FEFEFE" transform="translate(258,62)"/>
<path d="M0 0 C1.28992355 -0.0071553 2.57984711 -0.01431061 3.90885925 -0.02168274 C7.4400406 -0.04017876 10.97046577 -0.02727051 14.50161552 -0.00759244 C18.20018243 0.00881075 21.89870206 -0.00002114 25.59729004 -0.00511169 C31.80798399 -0.00963082 38.0183766 0.00622565 44.22900391 0.03417969 C51.40519139 0.06623105 58.58083541 0.06621544 65.75706148 0.04896492 C72.66572146 0.03309059 79.57418256 0.03983913 86.48283386 0.05690193 C89.42056078 0.0637672 92.35812802 0.06274546 95.29585266 0.05535698 C99.39936412 0.04625983 103.50203885 0.0702489 107.60546875 0.09765625 C109.43219368 0.08786743 109.43219368 0.08786743 111.29582214 0.07788086 C119.46882439 0.17084074 119.46882439 0.17084074 123.53381348 2.41444397 C126.21168273 5.77011943 126.42662038 8.81541985 126.44317627 13.01998901 C126.44888641 13.89188873 126.45459656 14.76378845 126.46047974 15.66210938 C126.46215652 17.08511353 126.46215652 17.08511353 126.46386719 18.53686523 C126.46883209 19.54218292 126.473797 20.54750061 126.47891235 21.58328247 C126.49351801 24.90912561 126.50033289 28.23492107 126.50585938 31.56079102 C126.51161157 33.87240602 126.51736929 36.18402101 126.52313232 38.49563599 C126.53363737 43.34271466 126.53948348 48.18977677 126.54296875 53.03686523 C126.54845637 59.24661116 126.57249239 65.45613814 126.6009407 71.66581535 C126.61956576 76.44077189 126.62477259 81.21567564 126.62630463 85.99066544 C126.62933131 88.2799919 126.63736034 90.56931743 126.65048981 92.85860825 C126.66754925 96.061426 126.66567023 99.26370795 126.65917969 102.46655273 C126.66839447 103.41117371 126.67760925 104.35579468 126.68710327 105.32904053 C126.65429089 110.4993348 126.2693985 114.19556932 123.30273438 118.63110352 C119.33491865 121.276314 115.95481334 120.86317953 111.35595703 120.79125977 C110.44005798 120.78524246 109.52415894 120.77922516 108.58050537 120.77302551 C106.58833639 120.75981904 104.59619054 120.74268014 102.60408401 120.72210693 C98.35565784 120.68350841 94.107469 120.68136739 89.85889244 120.67730713 C81.95026959 120.66957818 74.04244659 120.64836288 66.13427734 120.55932617 C60.63195689 120.49878836 55.1313868 120.48762076 49.62879562 120.50802612 C47.54055305 120.5067564 45.45223632 120.48767082 43.36433792 120.44973755 C31.22429162 120.23825772 23.04840801 120.64513332 13.87387085 129.08032227 C13.02539581 129.92208008 12.17692078 130.76383789 11.30273438 131.63110352 C9.58934554 133.02571496 7.86301133 134.40483815 6.11523438 135.75610352 C5.42042969 136.31555664 4.725625 136.87500977 4.00976562 137.45141602 C2.30273438 138.63110352 2.30273438 138.63110352 0.30273438 138.63110352 C-0.02726562 133.02110352 -0.35726562 127.41110352 -0.69726562 121.63110352 C-2.40914062 121.54860352 -4.12101563 121.46610352 -5.88476562 121.38110352 C-10.64117888 120.95871933 -13.37543969 120.28511204 -16.69726562 116.63110352 C-17.86764839 114.29033798 -17.83288888 112.89527007 -17.85116577 110.28617859 C-17.85976624 109.37351227 -17.8683667 108.46084595 -17.87722778 107.52052307 C-17.88148773 106.51633835 -17.88574768 105.51215363 -17.89013672 104.47753906 C-17.89831421 103.42213928 -17.9064917 102.3667395 -17.91491699 101.27935791 C-17.93979542 97.77551853 -17.95629247 94.2717197 -17.97070312 90.76782227 C-17.9760268 89.57334787 -17.98135048 88.37887348 -17.98683548 87.1482029 C-18.01357647 80.82716132 -18.03294921 74.50613956 -18.04736328 68.18505859 C-18.06402211 61.64768851 -18.10880824 55.11082146 -18.15973473 48.57364178 C-18.19334651 43.55423892 -18.20493407 38.5349564 -18.21059036 33.51545143 C-18.21731856 31.10525476 -18.23258096 28.69506643 -18.25648117 26.28497887 C-18.28800677 22.9138493 -18.28818792 19.54408909 -18.28076172 16.17285156 C-18.30536972 14.67568352 -18.30536972 14.67568352 -18.33047485 13.14826965 C-18.29205628 8.89408712 -18.05336998 6.26845742 -15.95437622 2.51168823 C-10.80709962 -0.46023716 -5.84200006 -0.05608877 0 0 Z " fill="#3E3652" transform="translate(220.697265625,178.368896484375)"/>
<path d="M0 0 C43.89 0 87.78 0 133 0 C133 2.97 133 5.94 133 9 C132.01107758 9.00142502 131.02215515 9.00285004 130.00326538 9.00431824 C120.67487442 9.02100158 111.34691895 9.06381591 102.01875877 9.13209057 C97.22321721 9.16635361 92.42799398 9.19146948 87.63232422 9.19555664 C83.00251008 9.19984107 78.37341399 9.22831556 73.74382401 9.27343178 C71.97927663 9.2864022 70.21464331 9.29071606 68.45005417 9.28615379 C65.97421896 9.28124433 63.50047959 9.3073523 61.02490234 9.34057617 C60.29841492 9.33195053 59.57192749 9.32332489 58.82342529 9.31443787 C53.15815987 9.44154399 50.8392265 11.12652941 47 15 C45.81498408 17.37003185 45.86919414 18.8078229 45.85955811 21.4520874 C45.85384796 22.38855103 45.84813782 23.32501465 45.84225464 24.28985596 C45.84113678 25.32052185 45.84001892 26.35118774 45.83886719 27.41308594 C45.83390228 28.49614014 45.82893738 29.57919434 45.82382202 30.69506836 C45.80917237 34.29151029 45.80239326 37.88790809 45.796875 41.484375 C45.79112528 43.97821047 45.78536753 46.47204592 45.77960205 48.96588135 C45.77042932 53.53173399 45.76413265 58.09757393 45.7611053 62.66343474 C45.75707346 68.7109138 45.74480988 74.75823749 45.71875 80.80566406 C45.69122834 87.29187785 45.67835781 93.77795825 45.67642975 100.26422882 C45.67340128 102.73776611 45.66536627 105.21130249 45.65224457 107.68480682 C45.63519375 111.14647359 45.63706242 114.60764423 45.64355469 118.06933594 C45.6343399 119.09190491 45.62512512 120.11447388 45.6156311 121.16802979 C45.64699533 126.5055065 45.86720206 130.45900899 49 135 C53.51078576 138.9220678 53.51078576 138.9220678 63 139 C63.495 149.395 63.495 149.395 64 160 C69.28250795 158.94349841 70.59438888 158.00136913 74.5 154.5625 C75.97326431 153.27339373 77.45122229 151.98887969 78.9621582 150.74414062 C80.56219049 149.37471081 82.0915891 147.92271029 83.59057617 146.44335938 C91.57884065 138.99215867 98.24620451 137.81045232 109.00585938 138.12109375 C110.77479308 138.20460353 112.54367335 138.28925244 114.3125 138.375 C116.13203756 138.42527691 117.95171043 138.47088368 119.77148438 138.51171875 C124.1871494 138.61221181 128.58363578 138.80770548 133 139 C133 149.23 133 159.46 133 170 C89.11 170 45.22 170 0 170 C0 113.9 0 57.8 0 0 Z " fill="#3F3652" transform="translate(153,165)"/>
<path d="M0 0 C1.28992355 -0.0071553 2.57984711 -0.01431061 3.90885925 -0.02168274 C7.4400406 -0.04017876 10.97046577 -0.02727051 14.50161552 -0.00759244 C18.20018243 0.00881075 21.89870206 -0.00002114 25.59729004 -0.00511169 C31.80798399 -0.00963082 38.0183766 0.00622565 44.22900391 0.03417969 C51.40519139 0.06623105 58.58083541 0.06621544 65.75706148 0.04896492 C72.66572146 0.03309059 79.57418256 0.03983913 86.48283386 0.05690193 C89.42056078 0.0637672 92.35812802 0.06274546 95.29585266 0.05535698 C99.39936412 0.04625983 103.50203885 0.0702489 107.60546875 0.09765625 C109.43219368 0.08786743 109.43219368 0.08786743 111.29582214 0.07788086 C119.46882439 0.17084074 119.46882439 0.17084074 123.53381348 2.41444397 C126.21168273 5.77011943 126.42662038 8.81541985 126.44317627 13.01998901 C126.44888641 13.89188873 126.45459656 14.76378845 126.46047974 15.66210938 C126.46215652 17.08511353 126.46215652 17.08511353 126.46386719 18.53686523 C126.46883209 19.54218292 126.473797 20.54750061 126.47891235 21.58328247 C126.49351801 24.90912561 126.50033289 28.23492107 126.50585938 31.56079102 C126.51161157 33.87240602 126.51736929 36.18402101 126.52313232 38.49563599 C126.53363737 43.34271466 126.53948348 48.18977677 126.54296875 53.03686523 C126.54845637 59.24661116 126.57249239 65.45613814 126.6009407 71.66581535 C126.61956576 76.44077189 126.62477259 81.21567564 126.62630463 85.99066544 C126.62933131 88.2799919 126.63736034 90.56931743 126.65048981 92.85860825 C126.66754925 96.061426 126.66567023 99.26370795 126.65917969 102.46655273 C126.66839447 103.41117371 126.67760925 104.35579468 126.68710327 105.32904053 C126.65429089 110.4993348 126.2693985 114.19556932 123.30273438 118.63110352 C119.33491865 121.276314 115.95481334 120.86317953 111.35595703 120.79125977 C110.44005798 120.78524246 109.52415894 120.77922516 108.58050537 120.77302551 C106.58833639 120.75981904 104.59619054 120.74268014 102.60408401 120.72210693 C98.35565784 120.68350841 94.107469 120.68136739 89.85889244 120.67730713 C81.95026959 120.66957818 74.04244659 120.64836288 66.13427734 120.55932617 C60.63195689 120.49878836 55.1313868 120.48762076 49.62879562 120.50802612 C47.54055305 120.5067564 45.45223632 120.48767082 43.36433792 120.44973755 C31.22429162 120.23825772 23.04840801 120.64513332 13.87387085 129.08032227 C13.02539581 129.92208008 12.17692078 130.76383789 11.30273438 131.63110352 C9.58934554 133.02571496 7.86301133 134.40483815 6.11523438 135.75610352 C5.42042969 136.31555664 4.725625 136.87500977 4.00976562 137.45141602 C2.30273438 138.63110352 2.30273438 138.63110352 0.30273438 138.63110352 C-0.02726562 133.02110352 -0.35726562 127.41110352 -0.69726562 121.63110352 C-2.40914062 121.54860352 -4.12101563 121.46610352 -5.88476562 121.38110352 C-10.64117888 120.95871933 -13.37543969 120.28511204 -16.69726562 116.63110352 C-17.86764839 114.29033798 -17.83288888 112.89527007 -17.85116577 110.28617859 C-17.85976624 109.37351227 -17.8683667 108.46084595 -17.87722778 107.52052307 C-17.88148773 106.51633835 -17.88574768 105.51215363 -17.89013672 104.47753906 C-17.89831421 103.42213928 -17.9064917 102.3667395 -17.91491699 101.27935791 C-17.93979542 97.77551853 -17.95629247 94.2717197 -17.97070312 90.76782227 C-17.9760268 89.57334787 -17.98135048 88.37887348 -17.98683548 87.1482029 C-18.01357647 80.82716132 -18.03294921 74.50613956 -18.04736328 68.18505859 C-18.06402211 61.64768851 -18.10880824 55.11082146 -18.15973473 48.57364178 C-18.19334651 43.55423892 -18.20493407 38.5349564 -18.21059036 33.51545143 C-18.21731856 31.10525476 -18.23258096 28.69506643 -18.25648117 26.28497887 C-18.28800677 22.9138493 -18.28818792 19.54408909 -18.28076172 16.17285156 C-18.30536972 14.67568352 -18.30536972 14.67568352 -18.33047485 13.14826965 C-18.29205628 8.89408712 -18.05336998 6.26845742 -15.95437622 2.51168823 C-10.80709962 -0.46023716 -5.84200006 -0.05608877 0 0 Z M-1.29493713 12.72219849 C-3.02562872 16.31223998 -3.18330578 18.81942306 -3.16381836 22.8046875 C-3.16727768 23.85934204 -3.16727768 23.85934204 -3.17080688 24.93530273 C-3.1734286 26.45543327 -3.16703086 27.97560072 -3.15255547 29.4956646 C-3.13060552 31.90506289 -3.13440545 34.31321009 -3.14503479 36.72267151 C-3.16666841 42.70539651 -3.1493577 48.68784116 -3.12353516 54.67053223 C-3.10210503 59.72970947 -3.10022478 64.7880822 -3.12645149 69.84724617 C-3.13079158 72.21521066 -3.10619811 74.58176441 -3.08091736 76.9495697 C-3.08619049 78.40909445 -3.09291455 79.86861492 -3.10131836 81.328125 C-3.09591537 82.59655746 -3.09051239 83.86498993 -3.08494568 85.17185974 C-3.88815667 89.70952445 -5.64336349 91.24387245 -8.69726562 94.63110352 C-9.40298205 99.65933306 -8.73177635 102.58508921 -5.69726562 106.63110352 C-3.63258707 109.03989517 -2.80731903 109.59441905 0.30273438 110.63110352 C1.77386256 110.72794051 3.24893074 110.7702575 4.72322083 110.77827454 C5.6274025 110.78542984 6.53158417 110.79258514 7.46316528 110.79995728 C8.45283295 110.80264618 9.44250061 110.80533508 10.4621582 110.80810547 C12.02843712 110.81796227 12.02843712 110.81796227 13.62635803 110.82801819 C17.0874946 110.84775549 20.54858779 110.85941408 24.00976562 110.86938477 C25.19104223 110.87346029 26.37231884 110.87753582 27.58939171 110.88173485 C33.84027304 110.90259626 40.0911324 110.91689836 46.34204102 110.92626953 C52.80185859 110.93734112 59.26133239 110.9717499 65.72102833 111.01144123 C70.68556871 111.03756923 75.65002665 111.04595794 80.61462975 111.04955101 C82.99607353 111.05442589 85.37751342 111.06606537 87.75889015 111.084589 C91.09124753 111.10890103 94.42270829 111.10802965 97.75512695 111.10107422 C98.73872192 111.11388428 99.72231689 111.12669434 100.73571777 111.13989258 C106.42382695 111.09661468 109.84551182 110.53221103 114.30273438 106.63110352 C117.12681258 102.39498621 116.9682621 98.60671555 116.30273438 93.63110352 C114.64017014 90.50295165 114.64017014 90.50295165 112.30273438 88.63110352 C111.64273438 88.63110352 110.98273438 88.63110352 110.30273438 88.63110352 C110.31605804 87.25381073 110.31605804 87.25381073 110.32965088 85.84869385 C110.40978859 77.19689846 110.47069463 68.54522767 110.50998306 59.89314651 C110.53086075 55.44496075 110.5591814 50.99708157 110.60449219 46.54907227 C110.64794394 42.25671118 110.67187012 37.96464504 110.68224335 33.67208099 C110.68963597 32.03418077 110.70407213 30.39629674 110.7256546 28.75852203 C110.75468084 26.46471742 110.75869088 24.17213245 110.75683594 21.87817383 C110.77015961 19.91959442 110.77015961 19.91959442 110.78375244 17.92144775 C110.51311313 14.64954311 110.51311313 14.64954311 108.90118408 12.21150208 C104.83712696 9.73970899 100.94374781 10.06594685 96.2734375 10.09765625 C94.74601173 10.08473289 94.74601173 10.08473289 93.18772888 10.07154846 C89.81955599 10.04883324 86.45221129 10.0556375 83.08398438 10.06469727 C80.74515535 10.05946439 78.40632845 10.05318915 76.06750488 10.0459137 C71.16485669 10.03549935 66.26249856 10.04008638 61.35986328 10.0546875 C55.07120759 10.07188157 48.78346499 10.04837675 42.49491119 10.0131979 C37.66507897 9.99125894 32.83546643 9.99265688 28.00559998 10.00096321 C25.68671161 10.00178455 23.36780741 9.9948865 21.04896545 9.98019218 C17.80941281 9.96281057 14.57151661 9.9772367 11.33203125 10 C10.37086899 9.9883078 9.40970673 9.9766156 8.41941833 9.96456909 C3.1309478 10.02584141 3.1309478 10.02584141 -1.29493713 12.72219849 Z " fill="#403754" transform="translate(220.697265625,178.368896484375)"/>
<path d="M0 0 C1.01828384 -0.0071553 2.03656769 -0.01431061 3.08570862 -0.02168274 C6.45407881 -0.03860134 9.82112406 -0.01914757 13.18945312 0.00219727 C15.52828074 0.00136887 17.86710831 -0.00108942 20.20593262 -0.00511169 C25.10865799 -0.00797188 30.01092708 0.00675375 34.91357422 0.03417969 C41.2021506 0.06826218 47.48991087 0.06224598 53.77852631 0.04351711 C58.60836606 0.03295527 63.43801548 0.04187765 68.26783752 0.05690193 C70.58670995 0.06209016 72.9056022 0.06159421 75.22447205 0.05535698 C78.46388585 0.04991485 81.7021261 0.07024911 84.94140625 0.09765625 C85.90256851 0.09113037 86.86373077 0.08460449 87.85401917 0.07788086 C91.72661945 0.133674 94.22006751 0.17456074 97.56915283 2.21150208 C99.50957854 5.56140457 99.45110011 8.01274611 99.42480469 11.87817383 C99.42538879 12.60052216 99.4259729 13.32287048 99.42657471 14.06710815 C99.42379393 16.4483084 99.39270451 18.82824771 99.36132812 21.20922852 C99.35386566 22.86260291 99.34817275 24.51598615 99.34417725 26.16937256 C99.32892122 30.5162813 99.28964008 34.8626535 99.24536133 39.20935059 C99.20440771 43.64673606 99.18616606 48.08420843 99.16601562 52.52172852 C99.12314543 61.22509945 99.05489496 69.9280347 98.97070312 78.63110352 C99.58945312 78.89922852 100.20820313 79.16735352 100.84570312 79.44360352 C102.97070312 80.63110352 102.97070312 80.63110352 104.97070312 83.63110352 C105.66991197 88.42800143 105.68552398 92.40569634 103.22070312 96.63110352 C99.73351419 99.73082701 97.0869989 100.87962297 92.42323303 100.89179993 C91.06273079 100.90242714 91.06273079 100.90242714 89.67474365 100.91326904 C88.68710022 100.91079163 87.69945679 100.90831421 86.68188477 100.90576172 C85.11297737 100.91342812 85.11297737 100.91342812 83.51237488 100.92124939 C80.05181165 100.9351597 76.59144725 100.93418755 73.13085938 100.93188477 C70.72716701 100.93577081 68.32347533 100.9401053 65.91978455 100.94487 C60.88017552 100.95233525 55.84063655 100.95203862 50.80102539 100.94677734 C44.34006082 100.94098148 37.8793828 100.95791533 31.41846561 100.98112202 C26.45395732 100.99584711 21.48951825 100.99673273 16.52499199 100.99361229 C14.14273956 100.99412609 11.76048332 100.99937474 9.37825203 101.00942421 C6.04828339 101.02174764 2.71887554 101.01502117 -0.61108398 101.00341797 C-1.59670319 101.01106171 -2.58232239 101.01870544 -3.59780884 101.02658081 C-9.67629949 100.97971838 -13.08140726 100.15786604 -17.77929688 96.13110352 C-19.80618213 93.69884121 -20.05338838 91.41829519 -20.40429688 88.31860352 C-20.02929688 84.63110352 -20.02929688 84.63110352 -17.54310608 81.85707092 C-14.57414321 78.46429962 -14.41402611 75.86460817 -14.43334961 71.328125 C-14.42929108 70.62326965 -14.42523254 69.91841431 -14.42105103 69.19219971 C-14.41555705 67.67154863 -14.42147674 66.15082145 -14.43771172 64.63024712 C-14.46322201 62.22089968 -14.45830653 59.81325532 -14.44581604 57.40382385 C-14.4251143 52.29189456 -14.44473287 47.18049766 -14.46679688 42.06860352 C-14.48792246 36.13926354 -14.49245248 30.21047348 -14.46629524 24.2811451 C-14.46293935 21.91159967 -14.48413489 19.54311103 -14.50669861 17.1736908 C-14.50418691 15.71735404 -14.50062645 14.26101859 -14.49584961 12.8046875 C-14.50514748 10.90323219 -14.50514748 10.90323219 -14.51463318 8.96336365 C-13.19638742 -0.08755167 -7.7922496 -0.09478997 0 0 Z M-8.02929688 6.63110352 C-8.02929688 30.06110352 -8.02929688 53.49110352 -8.02929688 77.63110352 C4.84070313 77.63110352 17.71070313 77.63110352 30.97070312 77.63110352 C30.97070312 78.29110352 30.97070312 78.95110352 30.97070312 79.63110352 C34.78318739 79.65997588 38.59564382 79.67785843 42.40820312 79.69360352 C43.49681641 79.70198242 44.58542969 79.71036133 45.70703125 79.71899414 C46.74150391 79.7222168 47.77597656 79.72543945 48.84179688 79.72875977 C50.27930298 79.73661499 50.27930298 79.73661499 51.74584961 79.74462891 C53.94355652 79.88163482 53.94355652 79.88163482 54.97070312 78.63110352 C57.85301495 78.47087982 60.71468232 78.37148771 63.59960938 78.31469727 C64.36527222 78.29604614 65.13093506 78.27739502 65.9197998 78.25817871 C68.79081244 78.18967606 71.66202245 78.12965847 74.53320312 78.06860352 C80.94757813 77.92422852 87.36195313 77.77985352 93.97070312 77.63110352 C93.97070312 54.20110352 93.97070312 30.77110352 93.97070312 6.63110352 C60.31070313 6.63110352 26.65070313 6.63110352 -8.02929688 6.63110352 Z " fill="#F3F3F4" transform="translate(232.029296875,188.368896484375)"/>
<path d="M0 0 C43.89 0 87.78 0 133 0 C133 17 133 17 130 22 C127.52619503 23.23690248 125.88461472 23.13129399 123.11685181 23.14044189 C121.56898735 23.14900711 121.56898735 23.14900711 119.98985291 23.15774536 C118.8531868 23.15886322 117.71652069 23.15998108 116.54541016 23.16113281 C114.75507607 23.16858017 114.75507607 23.16858017 112.92857361 23.17617798 C109.64959664 23.18829892 106.37065536 23.19574795 103.09166002 23.20018864 C101.04364146 23.20311845 98.99562851 23.20722308 96.94761276 23.21169281 C90.54144778 23.22536906 84.13529561 23.23503513 77.72911704 23.2388947 C70.33109039 23.24337617 62.93324844 23.26092748 55.53527796 23.2898953 C49.81887038 23.31150268 44.10251479 23.32159847 38.38606679 23.32293582 C34.97093509 23.32398452 31.55597697 23.32990587 28.14088821 23.34775543 C24.33157491 23.36475249 20.52271443 23.362951 16.71337891 23.35644531 C15.58076126 23.3656601 14.44814362 23.37487488 13.28120422 23.3843689 C12.24365494 23.37879974 11.20610565 23.37323059 10.13711548 23.36749268 C9.23635599 23.36895924 8.3355965 23.3704258 7.40754128 23.3719368 C4.48130888 22.91986832 3.1279713 22.03400374 1 20 C-1.11081869 13.66754392 0 6.6749948 0 0 Z " fill="#3C3350" transform="translate(153,340)"/>
<path d="M0 0 C1.00522202 -0.00571014 2.01044403 -0.01142029 3.04612732 -0.01730347 C4.15317017 -0.01842133 5.26021301 -0.01953918 6.40080261 -0.02069092 C8.1448362 -0.02813828 8.1448362 -0.02813828 9.92410278 -0.03573608 C13.78507572 -0.05038662 17.64600757 -0.0571646 21.50700378 -0.06268311 C23.50675341 -0.06698004 25.50650303 -0.07127748 27.50625247 -0.07565761 C33.080011 -0.0874742 38.65375956 -0.09500783 44.22752935 -0.09845281 C51.43537646 -0.10293218 58.64303381 -0.1204733 65.85082322 -0.1494534 C71.4220248 -0.17107545 76.99317302 -0.18115739 82.56441611 -0.18249393 C85.89184272 -0.18354173 89.21905038 -0.19088931 92.54644203 -0.20731354 C96.2597612 -0.22433389 99.97261671 -0.22250325 103.68595886 -0.21600342 C104.78692902 -0.2252182 105.88789917 -0.23443298 107.02223206 -0.243927 C116.42884643 -0.19224719 116.42884643 -0.19224719 120.23747253 3.14044189 C122.23747253 6.14044189 122.23747253 6.14044189 122.23747253 23.14044189 C78.34747253 23.14044189 34.45747253 23.14044189 -10.76252747 23.14044189 C-10.76252747 6.14044189 -10.76252747 6.14044189 -6.76252747 1.14044189 C-4.31775545 -0.08194411 -2.7336524 0.00927658 0 0 Z " fill="#3C3350" transform="translate(163.7625274658203,135.85955810546875)"/>
<path d="M0 0 C1.22551323 0.00636726 1.22551323 0.00636726 2.4757843 0.01286316 C5.08445232 0.02965184 7.69234687 0.06730356 10.30078125 0.10546875 C12.0696503 0.12051538 13.83853146 0.13420383 15.60742188 0.14648438 C19.94300621 0.17955589 24.27801261 0.23133885 28.61328125 0.29296875 C29.10828125 1.28296875 29.10828125 1.28296875 29.61328125 2.29296875 C45.45328125 2.78796875 45.45328125 2.78796875 61.61328125 3.29296875 C61.94328125 2.30296875 62.27328125 1.31296875 62.61328125 0.29296875 C67.66693417 0.19399694 72.72002149 0.12145272 77.77441406 0.07324219 C79.49326404 0.05314247 81.21204577 0.02585786 82.93066406 -0.00878906 C85.40316614 -0.05738159 87.87476335 -0.0800156 90.34765625 -0.09765625 C91.49787262 -0.12862396 91.49787262 -0.12862396 92.67132568 -0.16021729 C96.22794204 -0.16170878 98.21573164 -0.00476456 101.10253906 2.15722656 C102.61328125 4.29296875 102.61328125 4.29296875 103.05078125 6.85546875 C102.52892563 9.76295005 101.90930426 10.49379168 99.61328125 12.29296875 C97.56584167 12.67049217 97.56584167 12.67049217 95.17260742 12.67391968 C93.8098317 12.68660889 93.8098317 12.68660889 92.41952515 12.69955444 C91.42514435 12.69348175 90.43076355 12.68740906 89.40625 12.68115234 C87.83274277 12.68903778 87.83274277 12.68903778 86.22744751 12.69708252 C82.75174168 12.71031188 79.27649193 12.70153379 75.80078125 12.69140625 C73.39086824 12.69342613 70.98095583 12.69633685 68.57104492 12.70010376 C63.51703072 12.70453111 58.46317544 12.6980827 53.40917969 12.68408203 C46.92218884 12.66699012 40.43557032 12.67682908 33.94859314 12.69479942 C28.9712848 12.70562606 23.99406512 12.70219603 19.01675415 12.69441605 C16.62448076 12.69241095 14.23219938 12.69488411 11.8399353 12.70185471 C8.49984327 12.70945059 5.16035911 12.69789057 1.8203125 12.68115234 C0.8259317 12.68722504 -0.1684491 12.69329773 -1.19296265 12.69955444 C-2.1014798 12.69109497 -3.00999695 12.6826355 -3.94604492 12.67391968 C-5.13069588 12.67222306 -5.13069588 12.67222306 -6.33927917 12.67049217 C-8.93317666 12.19220843 -9.81938277 11.38589092 -11.38671875 9.29296875 C-11.76102024 6.2985568 -11.96574706 4.26018511 -10.38745117 1.6237793 C-7.17787119 -0.51111033 -3.72237908 -0.07260449 0 0 Z " fill="#3C3350" transform="translate(229.38671875,270.70703125)"/>
<path d="M0 0 C-0.54089377 3.77493417 -1.89714171 5.08334026 -4.89453125 7.34765625 C-5.68537109 7.95287109 -6.47621094 8.55808594 -7.29101562 9.18164062 C-8.12310547 9.80232422 -8.95519531 10.42300781 -9.8125 11.0625 C-10.63298828 11.68705078 -11.45347656 12.31160156 -12.29882812 12.95507812 C-14.52512584 14.64691994 -16.76013526 16.32618306 -19 18 C-19.70729248 18.56130615 -20.41458496 19.1226123 -21.14331055 19.70092773 C-23 21 -23 21 -25 21 C-19.91357155 26.54883104 -13.77060989 30.57342352 -7.59765625 34.828125 C-6.76621094 35.42109375 -5.93476563 36.0140625 -5.078125 36.625 C-4.31918945 37.15351563 -3.56025391 37.68203125 -2.77832031 38.2265625 C-0.59060632 40.40826959 -0.32383499 41.97581989 0 45 C-1.75366211 45.66772461 -1.75366211 45.66772461 -4 46 C-5.93188477 44.95532227 -5.93188477 44.95532227 -7.94140625 43.31640625 C-8.68535645 42.72166504 -9.42930664 42.12692383 -10.19580078 41.51416016 C-10.97681152 40.8701123 -11.75782227 40.22606445 -12.5625 39.5625 C-14.17473429 38.26822601 -15.78801397 36.97525313 -17.40234375 35.68359375 C-18.18593262 35.05179199 -18.96952148 34.41999023 -19.77685547 33.76904297 C-24.06863947 30.35390275 -28.5268793 27.17256579 -33 24 C-32.34616134 18.76929074 -28.44005 16.73869895 -24.52734375 13.6640625 C-23.35373485 12.77317267 -22.17774931 11.88540901 -21 11 C-20.3002002 10.47116211 -19.60040039 9.94232422 -18.87939453 9.39746094 C-16.62031148 7.70449655 -14.3450777 6.03612247 -12.0625 4.375 C-11.32902344 3.82972656 -10.59554687 3.28445312 -9.83984375 2.72265625 C-9.14117187 2.22378906 -8.4425 1.72492188 -7.72265625 1.2109375 C-7.10140869 0.76024902 -6.48016113 0.30956055 -5.84008789 -0.15478516 C-3.50318398 -1.22820447 -2.37014674 -0.85585904 0 0 Z " fill="#F4F4F5" transform="translate(261,208)"/>
<path d="M0 0 C3.88753544 0.55097921 6.24053719 1.59009987 9.36328125 3.94921875 C10.16830078 4.55056641 10.97332031 5.15191406 11.80273438 5.77148438 C12.63095703 6.40376953 13.45917969 7.03605469 14.3125 7.6875 C15.12912109 8.30044922 15.94574219 8.91339844 16.78710938 9.54492188 C19.19714809 11.35581152 21.59858136 13.17770321 24 15 C26.664382 17.00305308 29.33183197 19.00199369 32 21 C31.65996869 23.89072769 31.39537782 25.57152889 29.39282227 27.74169922 C28.70760498 28.25748535 28.0223877 28.77327148 27.31640625 29.3046875 C26.55763184 29.88524902 25.79885742 30.46581055 25.01708984 31.06396484 C24.2070752 31.66160645 23.39706055 32.25924805 22.5625 32.875 C21.7473291 33.49197754 20.9321582 34.10895508 20.09228516 34.74462891 C14.49064014 38.96284916 8.83092283 43.10295107 3 47 C1.68 46.34 0.36 45.68 -1 45 C0.42385983 41.60246849 2.07551543 39.87174992 4.9921875 37.65234375 C5.77980469 37.04712891 6.56742187 36.44191406 7.37890625 35.81835938 C8.20261719 35.19767578 9.02632813 34.57699219 9.875 33.9375 C10.69097656 33.31294922 11.50695312 32.68839844 12.34765625 32.04492188 C14.55893625 30.35489793 16.77669008 28.67415394 19 27 C19.70656738 26.43869385 20.41313477 25.8773877 21.14111328 25.29907227 C23 24 23 24 25 24 C25 23.34 25 22.68 25 22 C24.26410645 21.73574219 23.52821289 21.47148437 22.77001953 21.19921875 C20.00705109 20.00305261 18.02862179 18.67925933 15.6796875 16.8125 C14.89722656 16.19632813 14.11476563 15.58015625 13.30859375 14.9453125 C12.50550781 14.30335938 11.70242188 13.66140625 10.875 13 C9.26886164 11.72836741 7.66211601 10.45750137 6.0546875 9.1875 C5.34812012 8.62417969 4.64155273 8.06085938 3.91357422 7.48046875 C2.32608998 6.25228498 0.67002705 5.11335136 -1 4 C-0.67 2.68 -0.34 1.36 0 0 Z " fill="#F5F4F6" transform="translate(289,207)"/>
<path d="M0 0 C2.0625 0.4375 2.0625 0.4375 4 1 C6.02707147 7.99239932 8.02117773 14.99380515 10 22 C10.26103516 22.91700684 10.52207031 23.83401367 10.79101562 24.77880859 C11.51860895 27.34935634 12.23039896 29.92375026 12.9375 32.5 C13.16074951 33.28157471 13.38399902 34.06314941 13.61401367 34.8684082 C14.7056033 38.91141487 15.29087804 41.9589905 14 46 C12.68 46 11.36 46 10 46 C6.82473783 35.74313937 3.76420711 25.47200584 1.125 15.0625 C0.91012939 14.22944336 0.69525879 13.39638672 0.47387695 12.53808594 C-1.39376777 5.02430665 -1.39376777 5.02430665 -1 1 C-0.67 0.67 -0.34 0.34 0 0 Z " fill="#F2F2F3" transform="translate(268,207)"/>
</svg>
