<?xml version="1.0" encoding="UTF-8"?>
<svg version="1.1" xmlns="http://www.w3.org/2000/svg" width="500" height="500">
<path d="M0 0 C1.12699814 0.00821777 1.12699814 0.00821777 2.27676392 0.01660156 C10.50282741 0.15189901 18.56942142 1.12540037 26.7109375 2.2421875 C28.37734642 2.46380678 30.04376941 2.68532025 31.71020508 2.90673828 C61.12238447 6.86722891 90.50690906 11.36322931 119.6484375 16.9921875 C120.7200563 17.19711823 120.7200563 17.19711823 121.81332397 17.40618896 C128.92534762 18.77658724 135.99189618 20.31727584 143.00390625 22.1328125 C144.10371826 22.41672852 145.20353027 22.70064453 146.33666992 22.99316406 C150.43610131 24.70034282 153.33490709 27.24012668 155.3359375 31.2421875 C156.08573918 39.11510517 153.96588204 44.30640062 150.3359375 51.2421875 C150.93019531 51.38914063 151.52445312 51.53609375 152.13671875 51.6875 C160.71529895 54.00891984 170.4842929 57.3031327 175.3359375 65.2421875 C176.48408747 67.53848744 176.64363559 69.31916836 176.8984375 71.8671875 C176.98222656 72.68445313 177.06601562 73.50171875 177.15234375 74.34375 C177.21292969 74.97023438 177.27351563 75.59671875 177.3359375 76.2421875 C177.73683594 75.85546875 178.13773437 75.46875 178.55078125 75.0703125 C184.27535594 69.82603092 191.35139069 65.4157646 199.3359375 65.2421875 C204.59711313 67.02563687 207.84350022 68.63042225 210.5859375 73.4296875 C212.25872836 79.70265323 210.3083669 86.60085143 207.3359375 92.2421875 C201.15656736 101.39741221 192.92666787 109.25783999 185.3359375 117.2421875 C185.74585938 117.71269531 186.15578125 118.18320313 186.578125 118.66796875 C187.11695313 119.29058594 187.65578125 119.91320312 188.2109375 120.5546875 C188.74460937 121.16957031 189.27828125 121.78445312 189.828125 122.41796875 C192.40876614 125.54014339 193.64140791 127.52892398 193.7109375 131.5546875 C193.73929687 132.29332031 193.76765625 133.03195313 193.796875 133.79296875 C192.64346862 139.921662 187.86127719 143.91514535 183.2734375 147.7421875 C182.66910889 148.25281738 182.06478027 148.76344727 181.44213867 149.28955078 C174.15540788 155.35526181 166.47730648 160.89493904 158.80029297 166.45117188 C155.55090202 168.81272646 152.32517012 171.20551269 149.09863281 173.59814453 C139.61215791 180.62667184 130.00988908 187.47491295 120.3359375 194.2421875 C118.7694093 195.340972 117.2030067 196.43993556 115.63671875 197.5390625 C110.54079442 201.11298644 105.43908048 204.67858103 100.3359375 208.2421875 C99.36688477 208.91926758 98.39783203 209.59634766 97.39941406 210.29394531 C76.64857412 224.78670178 76.64857412 224.78670178 68.12109375 230.40625 C66.05873238 231.76573084 64.00511406 233.13495938 61.95703125 234.515625 C54.87080223 239.28646656 47.72664986 243.96224023 40.5234375 248.5546875 C39.7595874 249.04614258 38.9957373 249.53759766 38.20874023 250.04394531 C21.6338199 260.54538079 21.6338199 260.54538079 14.3359375 259.2421875 C9.3395659 257.4351815 5.01565361 254.80659477 0.79296875 251.61328125 C0.17945557 251.15228027 -0.43405762 250.6912793 -1.06616211 250.21630859 C-2.28188908 249.2876082 -3.48268995 248.33897868 -4.66625977 247.36962891 C-6.55057951 245.84832455 -6.55057951 245.84832455 -9.6640625 244.2421875 C-12.75766579 244.63727754 -12.75766579 244.63727754 -15.6640625 246.2421875 C-16.75203125 246.72816406 -17.84 247.21414063 -18.9609375 247.71484375 C-20.10046875 248.23949219 -21.24 248.76414062 -22.4140625 249.3046875 C-28.04023789 251.77395336 -33.42687367 253.89141162 -39.6640625 253.2421875 C-51.88371327 247.86554116 -59.04465067 232.10458585 -65.6640625 221.2421875 C-66.37082656 220.08756427 -67.07787062 218.9331124 -67.78515625 217.77880859 C-70.06225823 214.06128986 -72.33351913 210.34023904 -74.6015625 206.6171875 C-74.96627655 206.01877045 -75.3309906 205.42035339 -75.70675659 204.80380249 C-76.42045622 203.63129164 -77.13279824 202.45795319 -77.84368896 201.28373718 C-78.85838289 199.61193906 -79.88355825 197.94651699 -80.90893555 196.28125 C-82.6640625 193.2421875 -82.6640625 193.2421875 -83.75708008 190.609375 C-85.45709138 186.56473846 -86.78942053 184.71054911 -90.72875977 182.60107422 C-94.60740383 181.06392988 -98.49866591 179.74121021 -102.4765625 178.4921875 C-122.32095592 172.0031824 -122.32095592 172.0031824 -127.6640625 165.9921875 C-129.52733807 160.86817967 -129.65897565 156.61493571 -127.52734375 151.53125 C-124.65926075 146.15641728 -121.34802166 141.16389807 -117.66796875 136.3125 C-116.28258967 133.45549256 -116.68954236 132.25275865 -117.6640625 129.2421875 C-118.76663891 126.74964634 -119.89776624 124.30910415 -121.1015625 121.8671875 C-127.66354499 108.55380447 -127.66354499 108.55380447 -126.36328125 101.26953125 C-120.62761382 84.63929998 -89.49100303 72.60591389 -75.3515625 64.69921875 C-74.31708984 64.12018799 -73.28261719 63.54115723 -72.21679688 62.94458008 C-70.23206356 61.83777062 -68.24394506 60.73700229 -66.25195312 59.64331055 C-59.32347234 55.79011363 -53.737283 51.9824617 -48.8515625 45.6171875 C-48.16964844 44.74320313 -47.48773438 43.86921875 -46.78515625 42.96875 C-46.08519531 42.06898438 -45.38523437 41.16921875 -44.6640625 40.2421875 C-38.30081093 32.32083134 -31.74927841 24.56559342 -25.09228516 16.890625 C-23.77149603 15.366186 -22.45769799 13.8356974 -21.14453125 12.3046875 C-19.03747871 9.89252514 -16.87993148 7.55420859 -14.6640625 5.2421875 C-14.16519531 4.67371094 -13.66632813 4.10523437 -13.15234375 3.51953125 C-9.27993679 -0.12927216 -5.08580596 -0.05882461 0 0 Z " fill="#FDFDFD" transform="translate(209.6640625,120.7578125)"/>
<path d="M0 0 C6.26418531 1.48362284 10.91513505 5.24162156 16 9 C11.63943678 14.16134567 7.13684821 19.14858776 2.5 24.0625 C1.80656494 24.79911865 1.11312988 25.5357373 0.39868164 26.29467773 C-4.74560483 31.73409459 -10.00724545 37.04169082 -15.32641602 42.30932617 C-19.42149527 46.37943181 -23.28264467 50.58089902 -27 55 C-28.30992201 56.50225183 -29.62241575 58.00226516 -30.9375 59.5 C-31.81728516 60.50546875 -31.81728516 60.50546875 -32.71484375 61.53125 C-33.13894531 62.0159375 -33.56304687 62.500625 -34 63 C-33.01 64.1446875 -33.01 64.1446875 -32 65.3125 C-30 68 -30 68 -30 71 C-19.66896602 62.13591042 -9.76599698 52.85632091 -0.125 43.25 C0.57616943 42.55342285 1.27733887 41.8568457 1.99975586 41.13916016 C5.94960237 37.17758189 9.69919269 33.10567016 13.35253906 28.87011719 C15.76722295 26.12908599 18.33217418 23.55848041 20.9375 21 C21.67709961 20.26716797 21.67709961 20.26716797 22.43164062 19.51953125 C23.61873229 18.34396475 24.80900498 17.17161174 26 16 C29.99432374 17.39621406 32.98906046 19.26548451 36.3125 21.875 C37.19550781 22.55304688 38.07851563 23.23109375 38.98828125 23.9296875 C41 26 41 26 41 30 C39.27331258 31.82898668 37.63800395 33.31603314 35.6875 34.875 C35.11209473 35.34768311 34.53668945 35.82036621 33.94384766 36.30737305 C26.66000339 42.21105013 19.05281274 47.69586733 11.46728516 53.20166016 C9.05593952 54.95922714 6.65673559 56.73198119 4.26171875 58.51171875 C-6.23780987 66.31108805 -16.88323911 73.87397775 -27.62158203 81.34033203 C-30.54260648 83.37863261 -33.44969553 85.4360836 -36.35462952 87.4972229 C-42.75206949 92.03270918 -49.18058306 96.51827293 -55.65625 100.94140625 C-56.46933121 101.49712311 -57.28241241 102.05283997 -58.12013245 102.62539673 C-67.11385188 108.76757658 -76.12291544 114.88700806 -85.14575195 120.98632812 C-87.0205011 122.2546324 -88.89418515 123.52451236 -90.7668457 124.79589844 C-119.25108633 144.13214971 -119.25108633 144.13214971 -123.57836914 143.80517578 C-125.9766295 143.00777053 -127.68556688 142.12549291 -129.7421875 140.671875 C-130.41636719 140.20136719 -131.09054688 139.73085938 -131.78515625 139.24609375 C-132.47480469 138.75238281 -133.16445312 138.25867188 -133.875 137.75 C-134.89787109 137.03263672 -134.89787109 137.03263672 -135.94140625 136.30078125 C-141.55443498 132.35562392 -141.55443498 132.35562392 -143.89160156 130.49023438 C-147.26143385 127.6889414 -147.26143385 127.6889414 -151.42944336 127.2409668 C-153.93969509 127.98219318 -156.1027968 128.88188605 -158.43359375 130.06640625 C-159.6546582 130.6706543 -159.6546582 130.6706543 -160.90039062 131.28710938 C-162.59025264 132.13659351 -164.27776996 132.99075824 -165.96289062 133.84960938 C-174.52336181 138.06555684 -174.52336181 138.06555684 -179 137 C-180.91061742 135.05447097 -182.18046883 133.44589893 -183.625 131.1875 C-184.04612061 130.56294922 -184.46724121 129.93839844 -184.90112305 129.29492188 C-186.2923976 127.21194738 -187.64799061 125.10864283 -189 123 C-189.46712402 122.28279785 -189.93424805 121.5655957 -190.41552734 120.82666016 C-198.13444481 108.96167105 -205.3436372 96.79558059 -212.47949219 84.57373047 C-214.5750717 81.02658865 -216.73520061 77.51938264 -218.90283203 74.01586914 C-220 72 -220 72 -220 70 C-212.38452492 72.06472292 -204.78318371 74.17625165 -197.1875 76.3125 C-179.83808414 81.1790202 -162.46256099 85.9445343 -145.02148438 90.47265625 C-143.21566526 90.9437395 -141.41233823 91.42435199 -139.609375 91.90625 C-132.46440672 93.77666054 -125.33240556 95.1058042 -118 96 C-117.15050781 96.13277344 -116.30101562 96.26554687 -115.42578125 96.40234375 C-113.01780798 96.63537342 -111.34377066 96.59945666 -109 96 C-107.21750884 94.50821557 -107.21750884 94.50821557 -105.65625 92.515625 C-105.05184082 91.78746582 -104.44743164 91.05930664 -103.82470703 90.30908203 C-100.92461922 86.63915555 -98.12306881 82.90988888 -95.375 79.125 C-94.77598877 78.30563965 -94.17697754 77.4862793 -93.55981445 76.64208984 C-91.70221148 74.09784896 -89.85055548 71.54937008 -88 69 C-87.41814941 68.20078125 -86.83629883 67.4015625 -86.23681641 66.578125 C-79.36517835 57.13719378 -72.59089281 47.63939362 -66 38 C-61.83425022 41.92204961 -58.51588273 46.16876174 -55.1875 50.8125 C-54.68541016 51.50537109 -54.18332031 52.19824219 -53.66601562 52.91210938 C-52.4400012 54.60517691 -51.2194351 56.30218756 -50 58 C-46.3634792 55.26625185 -43.56054579 52.4454341 -40.75 48.875 C-37.76360694 45.14695303 -34.722137 41.52632476 -31.5 38 C-27.64030195 33.75967428 -23.99654712 29.38275143 -20.390625 24.92578125 C-17.75974521 21.70596269 -15.07252081 18.53891244 -12.375 15.375 C-8.10433041 10.35854015 -3.97765808 5.25376682 0 0 Z " fill="#E5E5E5" transform="translate(350,225)"/>
<path d="M0 0 C4.04697144 3.83358567 7.35415326 7.93109989 10.625 12.4375 C11.34042969 13.40139648 11.34042969 13.40139648 12.0703125 14.38476562 C14.77922762 18.09071201 17.26354927 21.72044944 19 26 C17.87570319 29.37289043 17.34144848 29.72758493 14.4921875 31.6015625 C13.76112793 32.0867334 13.03006836 32.5719043 12.27685547 33.07177734 C11.48424316 33.58434082 10.69163086 34.0969043 9.875 34.625 C9.05531738 35.16205566 8.23563477 35.69911133 7.39111328 36.25244141 C0.75811493 40.57103436 -5.9622198 44.71563799 -12.79541016 48.70849609 C-15.32110334 50.18811037 -17.83799353 51.68222921 -20.35546875 53.17578125 C-34.06635014 61.27709342 -47.96753541 68.96498955 -62.03613281 76.42626953 C-64.71337039 77.8478077 -67.38494016 79.27930572 -70.0546875 80.71484375 C-78.72149723 85.35597795 -87.48322375 89.80109505 -96.3125 94.125 C-97.28598389 94.61121826 -98.25946777 95.09743652 -99.26245117 95.59838867 C-108.61673608 100.11704639 -108.61673608 100.11704639 -113 99 C-114.91061742 97.05447097 -116.18046883 95.44589893 -117.625 93.1875 C-118.04612061 92.56294922 -118.46724121 91.93839844 -118.90112305 91.29492188 C-120.2923976 89.21194738 -121.64799061 87.10864283 -123 85 C-123.46712402 84.28279785 -123.93424805 83.5655957 -124.41552734 82.82666016 C-132.13444481 70.96167105 -139.3436372 58.79558059 -146.47949219 46.57373047 C-148.5750717 43.02658865 -150.73520061 39.51938264 -152.90283203 36.01586914 C-154 34 -154 34 -154 32 C-146.38452492 34.06472292 -138.78318371 36.17625165 -131.1875 38.3125 C-113.83808414 43.1790202 -96.46256099 47.9445343 -79.02148438 52.47265625 C-77.21566526 52.9437395 -75.41233823 53.42435199 -73.609375 53.90625 C-66.46440672 55.77666054 -59.33240556 57.1058042 -52 58 C-51.15050781 58.13277344 -50.30101562 58.26554687 -49.42578125 58.40234375 C-47.01780798 58.63537342 -45.34377066 58.59945666 -43 58 C-41.21750884 56.50821557 -41.21750884 56.50821557 -39.65625 54.515625 C-39.05184082 53.78746582 -38.44743164 53.05930664 -37.82470703 52.30908203 C-34.92461922 48.63915555 -32.12306881 44.90988888 -29.375 41.125 C-28.77598877 40.30563965 -28.17697754 39.4862793 -27.55981445 38.64208984 C-25.70221148 36.09784896 -23.85055548 33.54937008 -22 31 C-21.12722412 29.80117188 -21.12722412 29.80117188 -20.23681641 28.578125 C-13.36517835 19.13719378 -6.59089281 9.63939362 0 0 Z " fill="#3E3551" transform="translate(284,263)"/>
<path d="M0 0 C0.99 0.495 0.99 0.495 2 1 C1.21238281 1.95777344 0.42476563 2.91554687 -0.38671875 3.90234375 C-13.1130127 19.43608263 -25.1419174 35.47588819 -37.16894531 51.55322266 C-40.08854564 55.45458725 -43.01315281 59.35219305 -45.9375 63.25 C-46.92580602 64.56768976 -47.91408996 65.88539607 -48.90234375 67.203125 C-49.59457031 68.12609375 -50.28679687 69.0490625 -51 70 C-54.76698259 66.56889656 -56.47548901 62.35767565 -58.625 57.8125 C-59.03234375 56.98685547 -59.4396875 56.16121094 -59.859375 55.31054688 C-62.30578509 50.17065547 -64.41083266 45.74578823 -64 40 C-59.52405864 34.04376333 -52.05234495 30.304069 -45.75 26.5625 C-44.77434082 25.97557373 -43.79868164 25.38864746 -42.79345703 24.78393555 C-31.22751786 17.86740598 -19.5042549 11.21801942 -7.77294922 4.5871582 C-5.90635226 3.51877056 -4.06871155 2.39832488 -2.26220703 1.23120117 C-1.51567871 0.82490479 -0.76915039 0.4186084 0 0 Z " fill="#3E3652" transform="translate(159,184)"/>
<path d="M0 0 C0.99 0.33 1.98 0.66 3 1 C-1.55134623 6.28142566 -6.22272992 11.44538846 -10.94824219 16.57080078 C-13.53549495 19.38268462 -16.07733702 22.22270564 -18.5625 25.125 C-19.37460937 26.03958984 -19.37460937 26.03958984 -20.203125 26.97265625 C-21.59347666 28.54133563 -22.95203198 30.13822871 -24.296875 31.74609375 C-30.47269969 38.66033227 -30.47269969 38.66033227 -34.4765625 39.55078125 C-40.88965056 39.09270353 -47.0950318 36.41362769 -53 34 C-52.78588867 32.17358398 -52.78588867 32.17358398 -52 30 C-50.0324707 28.55883789 -50.0324707 28.55883789 -47.42578125 27.22265625 C-46.45817871 26.71532959 -45.49057617 26.20800293 -44.49365234 25.68530273 C-43.44387207 25.14977783 -42.3940918 24.61425293 -41.3125 24.0625 C-39.12182265 22.91241912 -36.93306273 21.75867959 -34.74609375 20.6015625 C-33.06749268 19.71452637 -33.06749268 19.71452637 -31.35498047 18.80957031 C-26.11639809 15.98404473 -20.99041269 12.97901424 -15.875 9.9375 C-14.97048096 9.4019751 -14.06596191 8.8664502 -13.1340332 8.31469727 C-9.52666107 6.1646147 -5.9833644 4.01462672 -2.5703125 1.56640625 C-1.72210938 1.04949219 -0.87390625 0.53257812 0 0 Z " fill="#FCFCFC" transform="translate(277,307)"/>
<path d="M0 0 C13.67579954 1.56679513 27.28581976 3.4388757 40.875 5.625 C41.56538361 5.73500336 42.25576721 5.84500671 42.96707153 5.95834351 C44.93442828 6.27286857 46.90083193 6.59333775 48.8671875 6.9140625 C50.57044189 7.1917749 50.57044189 7.1917749 52.30810547 7.47509766 C55 8 55 8 57 9 C58.77282003 9.33693415 60.55301494 9.63549004 62.3359375 9.9140625 C68.78920152 10.95466334 75.20681589 12.13775386 81.625 13.375 C83.30601807 13.69827271 83.30601807 13.69827271 85.02099609 14.02807617 C94.38781439 15.84668738 103.70408218 17.85016888 113 20 C113.495 21.98 113.495 21.98 114 24 C108.85943305 23.31461912 103.80554208 22.40661699 98.7265625 21.36328125 C97.09784938 21.03280927 95.46910453 20.70249363 93.84033203 20.37231445 C92.99069885 20.1994693 92.14106567 20.02662415 91.26568604 19.84854126 C60.95010978 13.69468599 30.63673601 8.29069806 0 4 C0 2.68 0 1.36 0 0 Z " fill="#2C2B2B" transform="translate(195,168)"/>
<path d="M0 0 C16.95940543 2.77755195 33.83717195 5.87850715 50.6875 9.25 C51.66446838 9.44531311 52.64143677 9.64062622 53.64801025 9.84185791 C66.2581891 12.36985947 78.84349107 14.98049171 91.375 17.875 C92.57213623 18.14860352 93.76927246 18.42220703 95.00268555 18.70410156 C100.61623249 20.03132119 105.79704144 21.49598248 111 24 C111 24.99 111 25.98 111 27 C105.119634 26.07087772 99.39544875 24.87755841 93.6640625 23.26171875 C82.53371122 20.22049488 71.22405013 17.93890251 59.9375 15.5625 C58.79113068 15.31977356 57.64476135 15.07704712 56.46365356 14.82696533 C39.46086845 11.23347459 22.46448669 7.93377311 5.26928711 5.39794922 C3 5 3 5 0 4 C0 2.68 0 1.36 0 0 Z " fill="#2F2E2E" transform="translate(184,186)"/>
<path d="M0 0 C6.27684326 0.57175747 12.09648583 1.64864872 18.17578125 3.27734375 C29.10422817 6.10429807 40.11907885 8.36034037 51.1875 10.5625 C85.29282053 17.37414844 85.29282053 17.37414844 99.5625 21.75 C100.29662109 21.97042969 101.03074219 22.19085938 101.78710938 22.41796875 C103.52610174 22.94080306 105.26328806 23.46963991 107 24 C107 24.99 107 25.98 107 27 C102.07953002 27.27074243 98.02310234 26.27830347 93.39453125 24.77734375 C83.61306026 21.75924015 73.7026387 19.64373231 63.6875 17.5625 C61.83407715 17.17169699 59.98080724 16.78016801 58.12768555 16.38793945 C53.58291502 15.42718299 49.03681487 14.47292871 44.4901123 13.5213623 C11.50222796 6.61458972 11.50222796 6.61458972 -1 3 C-0.67 2.01 -0.34 1.02 0 0 Z " fill="#2F2E2E" transform="translate(158,223)"/>
<path d="M0 0 C6.03863753 -0.26165016 11.48633033 0.72878259 17.3828125 1.9765625 C18.38235458 2.18229889 19.38189667 2.38803528 20.41172791 2.6000061 C23.65090202 3.26836061 26.8879494 3.94644208 30.125 4.625 C32.3598266 5.08878539 34.59477191 5.55199918 36.82983398 6.01464844 C41.23245158 6.92677617 45.63430468 7.84246999 50.03564453 8.76074219 C54.96688486 9.78795015 59.90154825 10.79639445 64.83984375 11.7890625 C79.67276351 14.78210105 94.35929255 18.17319511 109 22 C109 23.32 109 24.64 109 26 C108.06720215 25.7728833 107.1344043 25.5457666 106.17333984 25.31176758 C93.04956514 22.15237116 79.84425151 19.41432374 66.625 16.6875 C64.27609659 16.20072989 61.92721987 15.71383092 59.57836914 15.22680664 C49.02510381 13.04251123 38.46857544 10.87847431 27.89453125 8.796875 C26.65694061 8.5526757 26.65694061 8.5526757 25.39434814 8.30354309 C21.63316283 7.56242389 17.87085934 6.82820096 14.10595703 6.10620117 C12.81157715 5.85330322 11.51719727 5.60040527 10.18359375 5.33984375 C9.07556396 5.12706787 7.96753418 4.91429199 6.82592773 4.69506836 C4.27634398 4.06796988 2.27258829 3.29051655 0 2 C0 1.34 0 0.68 0 0 Z " fill="#2B2A2A" transform="translate(169,205)"/>
<path d="M0 0 C8.491597 0.53306006 16.60799809 2.31831365 24.875 4.25 C25.59823456 4.41696381 26.32146912 4.58392761 27.06661987 4.75595093 C42.27378352 8.26828562 57.41972492 12.03388155 72.5625 15.8125 C73.70241394 16.09653687 74.84232788 16.38057373 76.01678467 16.67321777 C79.30494687 17.49388068 82.5921141 18.31840002 85.87890625 19.14453125 C86.85373459 19.38804825 87.82856293 19.63156525 88.83293152 19.88246155 C94.9421569 21.42519791 100.98056215 23.137526 107 25 C107 26.32 107 27.64 107 29 C94.74608512 26.18878368 82.56942789 23.11746022 70.39834595 19.96871948 C53.08946564 15.49617987 35.76589647 11.21961472 18.30078125 7.40234375 C12.1679265 6.0602194 6.08100329 4.55896689 0 3 C0 2.01 0 1.02 0 0 Z " fill="#2D2C2C" transform="translate(144,241)"/>
<path d="M0 0 C7.05249217 -0.18800561 13.66735147 0.519473 20.62890625 1.609375 C22.28900978 1.8614975 22.28900978 1.8614975 23.98265076 2.11871338 C27.51025215 2.65624969 31.03633076 3.20315704 34.5625 3.75 C36.87165723 4.10213716 39.18090148 4.45370419 41.49023438 4.8046875 C56.34880771 7.07346083 71.18084048 9.48718099 86 12 C86.495 13.485 86.495 13.485 87 15 C79.81592754 15.23638857 73.1294034 14.5576378 66.0625 13.3125 C54.67104336 11.39267986 43.25702976 9.71719804 31.81472778 8.13540649 C21.16224222 6.66230501 10.57871963 4.93386012 0 3 C0 2.01 0 1.02 0 0 Z " fill="#2C2B2B" transform="translate(211,151)"/>
<path d="M0 0 C6.8975392 1.56423675 13.40403911 3.82852488 19.9375 6.5 C20.670896 6.79656494 21.40429199 7.09312988 22.15991211 7.39868164 C25.80301205 8.91716501 28.96934127 10.40455336 32 13 C30.56023561 25.06913608 20.50310464 37.49689536 12 46 C11.01 46 10.02 46 9 46 C9.59271706 43.02140409 10.44820364 41.08311627 12.29296875 38.6796875 C12.75590332 38.06641602 13.21883789 37.45314453 13.69580078 36.82128906 C14.18806152 36.17901367 14.68032227 35.53673828 15.1875 34.875 C22.73442402 25.07974617 22.73442402 25.07974617 28 14 C27.46705322 13.82621826 26.93410645 13.65243652 26.38500977 13.47338867 C20.52140697 11.54254317 14.72383505 9.46273622 8.9375 7.3125 C8.07189453 6.99216797 7.20628906 6.67183594 6.31445312 6.34179688 C4.20915373 5.56248716 2.10434886 4.78187196 0 4 C0 2.68 0 1.36 0 0 Z " fill="#DAD8DE" transform="translate(343,178)"/>
<path d="M0 0 C7.63776254 0.60810211 14.736185 2.32783052 22.125 4.3125 C23.32116943 4.62864258 24.51733887 4.94478516 25.74975586 5.27050781 C28.11011657 5.89515372 30.46976361 6.52250399 32.82861328 7.15283203 C35.46607312 7.85737288 38.10512222 8.55487216 40.74609375 9.24609375 C47.53948552 11.0330965 54.29132015 12.91636297 61 15 C61 15.99 61 16.98 61 18 C53.13213873 17.6297477 45.83292029 15.77749561 38.29150391 13.64306641 C35.74381995 12.92810801 33.19099267 12.2340084 30.63671875 11.54296875 C20.40149044 8.77375813 10.18346719 5.95424816 0 3 C0 2.01 0 1.02 0 0 Z " fill="#2E2D2D" transform="translate(131,258)"/>
<path d="M0 0 C4.75 0.75 4.75 0.75 7 3 C7 4.32 7 5.64 7 7 C5.56570999 7.67354499 4.12742943 8.33859701 2.6875 9 C1.48673828 9.556875 1.48673828 9.556875 0.26171875 10.125 C-2 11 -2 11 -5 11 C-4.46884894 6.48521602 -2.63379708 3.65333143 0 0 Z " fill="#212020" transform="translate(313,290)"/>
<path d="M0 0 C0.99 0 1.98 0 3 0 C2.67 1.65 2.34 3.3 2 5 C1.01 5 0.02 5 -1 5 C-1 1 -1 1 0 0 Z " fill="#252424" transform="translate(406,198)"/>
</svg>
