<?xml version="1.0" encoding="UTF-8"?>
<svg version="1.1" xmlns="http://www.w3.org/2000/svg" width="500" height="500">
<path d="M0 0 C0.79776855 0.03577148 1.59553711 0.07154297 2.41748047 0.10839844 C46.00585651 2.36994266 85.1217824 20.70253967 117 50 C117.84175781 50.76957031 118.68351562 51.53914063 119.55078125 52.33203125 C152.65059592 84.02084139 169.5197173 128.97557406 172 174 C172.06058594 175.07894531 172.12117188 176.15789062 172.18359375 177.26953125 C172.2549119 180.20196597 172.16449662 183.07056012 172 186 C171.9383667 187.11882568 171.9383667 187.11882568 171.87548828 188.26025391 C169.03138451 235.53780006 149.72699923 279.40015314 115 312 C114.34 312 113.68 312 113 312 C113 312.66 113 313.32 113 314 C111.018291 315.75880491 109.03431869 317.38757385 106.9375 319 C105.99064331 319.73259033 105.99064331 319.73259033 105.0246582 320.47998047 C63.95915756 351.87853756 15.7212779 364.64029979 -35.52734375 357.96875 C-66.32856126 353.58861506 -94.30662743 340.65137715 -119 322 C-119.84304687 321.36771484 -119.84304687 321.36771484 -120.703125 320.72265625 C-126.74239809 316.16330404 -126.74239809 316.16330404 -129 314 C-129 313.34 -129 312.68 -129 312 C-129.87591797 311.61134766 -129.87591797 311.61134766 -130.76953125 311.21484375 C-154.78981619 298.13199153 -172.60267502 258.11970752 -180.25 233.25 C-184.65371901 218.24680255 -187.55951342 202.64684925 -188 187 C-188.03996094 185.93652344 -188.07992187 184.87304688 -188.12109375 183.77734375 C-189.01056968 139.04193644 -173.45425 95.662 -144 62 C-143.29617187 61.175 -142.59234375 60.35 -141.8671875 59.5 C-112.25204527 25.53281178 -68.74428302 4.01999798 -23.88061523 0.46508789 C-15.90773426 -0.08043622 -7.98967092 -0.3741469 0 0 Z " fill="#9686C4" transform="translate(258,70)"/>
<path d="M0 0 C0.72981079 1.76815063 0.72981079 1.76815063 1.47436523 3.57202148 C12.63230784 30.60312229 23.7926017 57.63326245 35.01776123 84.63653564 C36.00086409 87.00207918 36.98314722 89.36796188 37.96533203 91.73388672 C39.50149864 95.43312217 41.04119778 99.13086741 42.58380127 102.8274231 C43.14619827 104.17631945 43.70754474 105.52565436 44.26776123 106.87545776 C45.02834532 108.70729399 45.79334929 110.53729323 46.55859375 112.3671875 C46.98454834 113.38925293 47.41050293 114.41131836 47.84936523 115.46435547 C48.99089188 118.16107804 48.99089188 118.16107804 51 121 C51.25579834 120.47680176 51.51159668 119.95360352 51.77514648 119.41455078 C56.84629741 109.14572433 61.56517764 99.90861326 70 92 C70.60972656 91.37222656 71.21945312 90.74445313 71.84765625 90.09765625 C84.16709901 78.14439651 102.0514615 73.38193906 118.79589844 73.59301758 C131.24336569 74.01890488 143.41191887 76.37599994 155 81 C156.12728516 81.38671875 156.12728516 81.38671875 157.27734375 81.78125 C159 83 159 83 159.609375 85.43359375 C159.65578125 86.42488281 159.7021875 87.41617188 159.75 88.4375 C159.80542969 89.50355469 159.86085938 90.56960937 159.91796875 91.66796875 C160.03564455 96.44784786 160.08469784 101.21927771 160 106 C156.26872827 104.75624276 156.14654021 103.8303621 154.375 100.4375 C147.73636891 89.03142061 136.92566772 82.99411362 124.5625 79.125 C112.45978356 76.20365465 98.99160658 77.61086638 88 83.65625 C77.08513878 90.98967238 70.35658497 100.3585769 67 113 C66.4323287 116.3447284 66.09880347 119.6834011 65.8125 123.0625 C65.544375 126.011875 65.27625 128.96125 65 132 C53.45 132 41.9 132 30 132 C30 131.01 30 130.02 30 129 C30.99 128.34 31.98 127.68 33 127 C33.56932244 122.98203808 32.44401054 120.12325096 30.83203125 116.47265625 C30.37521973 115.42094238 29.9184082 114.36922852 29.44775391 113.28564453 C28.96999512 112.20138184 28.49223633 111.11711914 28 110 C27.10458305 107.89601305 26.21261707 105.79055388 25.32421875 103.68359375 C24.88916016 102.65298828 24.45410156 101.62238281 24.00585938 100.56054688 C23.57080078 99.52994141 23.13574219 98.49933594 22.6875 97.4375 C22.23310547 96.37208984 21.77871094 95.30667969 21.31054688 94.20898438 C20.88193359 93.18998047 20.45332031 92.17097656 20.01171875 91.12109375 C19.62459717 90.2077124 19.23747559 89.29433105 18.83862305 88.35327148 C18 86 18 86 18 83 C0.18 83 -17.64 83 -36 83 C-36.66 85.31 -37.32 87.62 -38 90 C-38.79067478 92.3615864 -39.60333464 94.71592268 -40.4375 97.0625 C-40.84871094 98.22910156 -41.25992188 99.39570313 -41.68359375 100.59765625 C-42.94318997 103.85317051 -44.41397945 106.89367799 -46 110 C-48.10701263 115.76656089 -48.21912811 120.94962948 -48 127 C-46.68 127.66 -45.36 128.32 -44 129 C-44 129.99 -44 130.98 -44 132 C-51.26 132 -58.52 132 -66 132 C-66 131.01 -66 130.02 -66 129 C-64.63875 128.4121875 -64.63875 128.4121875 -63.25 127.8125 C-57.50798001 124.61021962 -55.11768504 119.64710812 -52.5 113.8125 C-52.04391357 112.81512817 -52.04391357 112.81512817 -51.57861328 111.79760742 C-49.60517756 107.44667159 -47.74329076 103.0624706 -46.02297974 98.60469055 C-44.94447271 95.85861752 -43.81369649 93.13883295 -42.67138672 90.41870117 C-40.18415074 84.46430066 -37.77058689 78.48313943 -35.3828125 72.48828125 C-34.75244583 70.90952461 -34.75244583 70.90952461 -34.10934448 69.2988739 C-32.33767383 64.86164702 -30.56806906 60.42359718 -28.79833984 55.9855957 C-27.92378976 53.79306398 -27.04869309 51.6007502 -26.17303467 49.40866089 C-25.31827959 47.26692099 -24.4657516 45.12429082 -23.61553955 42.98074341 C-21.73630675 38.25823296 -19.82993998 33.5595851 -17.77246094 28.91162109 C-17.43745575 28.14375778 -17.10245056 27.37589447 -16.7572937 26.58476257 C-16.1494876 25.20224952 -15.52697927 23.82604424 -14.88552856 22.45881653 C-12.69031695 17.43548608 -13.06565392 14.23889133 -14 9 C-14 7.68 -14 6.36 -14 5 C-12.23244474 4.15973604 -10.46082737 3.32801278 -8.6875 2.5 C-7.70136719 2.0359375 -6.71523437 1.571875 -5.69921875 1.09375 C-3 0 -3 0 0 0 Z " fill="#030305" transform="translate(192,134)"/>
<path d="M0 0 C3.32242846 3.80495481 4.9264462 8.24581292 6.80078125 12.8671875 C7.15963913 13.73836212 7.51849701 14.60953674 7.88822937 15.5071106 C9.03508011 18.29421429 10.17404879 21.08445617 11.3125 23.875 C12.43875109 26.6215526 13.56663834 29.36742758 14.69503784 32.11309814 C15.42833693 33.89808731 16.16054695 35.6835243 16.89163208 37.46942139 C19.50686223 43.84639453 22.21303439 50.1780477 24.99291992 56.48486328 C26 59 26 59 26 61 C9.5 61 -7 61 -24 61 C-23.27011277 57.35056383 -22.56974465 54.62240048 -21.20581055 51.26074219 C-20.83840256 50.34919373 -20.47099457 49.43764526 -20.092453 48.49847412 C-19.49561455 47.03743256 -19.49561455 47.03743256 -18.88671875 45.546875 C-18.27048393 44.02468353 -18.27048393 44.02468353 -17.64179993 42.47174072 C-16.77212578 40.3258667 -15.90034496 38.18084542 -15.02661133 36.03662109 C-13.69872443 32.77754845 -12.37710302 29.51599313 -11.05664062 26.25390625 C-10.20870181 24.16391297 -9.3604059 22.07406452 -8.51171875 19.984375 C-7.92398933 18.53547882 -7.92398933 18.53547882 -7.3243866 17.05731201 C-4.98601189 11.32308721 -2.55380201 5.64165645 0 0 Z " fill="#7174AA" transform="translate(182,153)"/>
<path d="M0 0 C5.94 0 11.88 0 18 0 C18.70125 1.77375 19.4025 3.5475 20.125 5.375 C27.49525562 22.91538487 38.41176965 34.61351144 55.9296875 42.2734375 C66.01398238 45.8124542 78.01521134 44.88987819 87.97265625 41.48046875 C93.38967817 38.83137029 99.24461792 34.51076416 102 29 C102.08559118 26.82175039 102.10713412 24.64084745 102.09765625 22.4609375 C102.09443359 21.15898437 102.09121094 19.85703125 102.08789062 18.515625 C102.07953466 17.13541601 102.07106971 15.75520768 102.0625 14.375 C102.05748501 12.98698074 102.0529221 11.59895978 102.04882812 10.2109375 C102.03700985 6.80727327 102.0190739 3.4036313 102 0 C106.95 0 111.9 0 117 0 C117.18986562 4.00224665 117.32812159 7.99541086 117.4375 12 C117.52547852 13.68802734 117.52547852 13.68802734 117.61523438 15.41015625 C117.73182871 21.1066222 117.65011727 25.04928915 113.8828125 29.51953125 C104.8143913 38.25463041 93.99098063 43.52010003 82 47 C81.37657715 47.18473877 80.7531543 47.36947754 80.11083984 47.55981445 C75.15375514 48.93163615 70.5081429 49.35122588 65.375 49.3125 C64.59302246 49.30758545 63.81104492 49.3026709 63.00537109 49.29760742 C45.21986353 48.94421696 27.66044879 42.50715036 14.6875 30.125 C7.16289862 22.09363975 0 11.33401894 0 0 Z " fill="#030304" transform="translate(244,293)"/>
<path d="M0 0 C9.66706493 0.17151244 19.67516523 1.05479697 27.08203125 7.93359375 C30.14709727 11.73083011 31.30984096 14.04254467 31 19 C32.43666016 18.94779297 32.43666016 18.94779297 33.90234375 18.89453125 C42.30048375 18.69104974 50.09873903 19.25771585 58.32592773 21.02075195 C62.28673895 21.84169237 65.08333526 21.82746438 69 21 C72.3125 22.9375 72.3125 22.9375 75 25 C74.14454771 17.4580533 71.36917505 13.26868247 66 8 C69 8 69 8 70.5703125 9.4609375 C71.08335937 10.09257812 71.59640625 10.72421875 72.125 11.375 C72.90230469 12.31472656 72.90230469 12.31472656 73.6953125 13.2734375 C75.91294219 16.20814506 76.11425787 18.00194918 76.0625 21.625 C76.05347656 22.44226563 76.04445313 23.25953125 76.03515625 24.1015625 C76.02355469 24.72804688 76.01195312 25.35453125 76 26 C77.5778125 26.0928125 77.5778125 26.0928125 79.1875 26.1875 C85.46839638 26.93441741 91.19788023 29.60308772 97 32 C96.01 32.495 96.01 32.495 95 33 C94.34786708 35.02463255 94.34786708 35.02463255 94 37 C93.67 36.34 93.34 35.68 93 35 C93.33 34.34 93.66 33.68 94 33 C78.32167435 35.11262183 78.32167435 35.11262183 65 43 C64.34 42.67 63.68 42.34 63 42 C64.24687592 41.03760548 65.49764969 40.08025991 66.75 39.125 C67.44609375 38.59132813 68.1421875 38.05765625 68.859375 37.5078125 C72.99890706 34.59201072 76.79776608 33.46449146 81.75 32.375 C82.92046875 32.11460937 84.0909375 31.85421875 85.296875 31.5859375 C86.18890625 31.39257812 87.0809375 31.19921875 88 31 C78.00573512 28.10360938 68.08188253 25.45949123 57.84375 23.578125 C55 23 55 23 53 22 C53.0825 22.86625 53.165 23.7325 53.25 24.625 C52.88533166 29.5480226 50.88824619 32.17530056 47.375 35.5703125 C41.08524347 40.78556895 33.19578118 44 25 44 C25.375 42.0625 25.375 42.0625 26 40 C26.66 39.67 27.32 39.34 28 39 C28 39.66 28 40.32 28 41 C35.92497262 39.61627462 42.57806167 37.33419632 48.4375 31.625 C50.2851362 28.52097118 51.0601763 25.47449975 52 22 C40.24539998 27.87375756 40.24539998 27.87375756 30 36 C33.29955386 28.74098152 40.21835591 25.54152525 47 22 C41.33993825 21.19783705 35.83963161 20.8071094 30.125 20.8125 C28.90139771 20.81262085 28.90139771 20.81262085 27.65307617 20.81274414 C19.0214574 20.89156792 10.5467298 21.86956671 2 23 C0.49364234 23.19001704 -1.01286417 23.37885845 -2.51953125 23.56640625 C-3.66808594 23.70949219 -4.81664062 23.85257812 -6 24 C-5.89558594 25.16015625 -5.89558594 25.16015625 -5.7890625 26.34375 C-5.45036591 32.85962721 -5.62785579 37.13091465 -10.01953125 42.1171875 C-15.18123685 47.02437113 -20.20740937 51.60261507 -27 54 C-26.91158724 52.45734969 -26.80340305 50.91582877 -26.6875 49.375 C-26.62949219 48.51648438 -26.57148437 47.65796875 -26.51171875 46.7734375 C-25.42470303 40.88197823 -22.3227851 36.92588547 -18.3125 32.625 C-17.50425781 31.75101562 -16.69601563 30.87703125 -15.86328125 29.9765625 C-15.24839844 29.32429688 -14.63351563 28.67203125 -14 28 C-14.33 27.67 -14.66 27.34 -15 27 C-15.54269531 27.13921875 -16.08539063 27.2784375 -16.64453125 27.421875 C-25.19762824 29.52114259 -33.9890401 28.31487996 -42 25 C-41 22 -41 22 -38.85546875 20.6484375 C-37.97503906 20.22820312 -37.09460938 19.80796875 -36.1875 19.375 C-35.31480469 18.94960938 -34.44210938 18.52421875 -33.54296875 18.0859375 C-27.3355348 15.43514389 -19.23417747 14.31855768 -12.8359375 16.859375 C-11.1935337 17.85784075 -9.59425116 18.92632065 -8 20 C-4.34472156 21.04864546 -1.7467855 20.95382232 1.9375 20.125 C8.58643026 18.78068077 15.23691434 18.37517847 22 18 C20.87464844 17.63261719 20.87464844 17.63261719 19.7265625 17.2578125 C11.4320365 14.22832568 5.41166629 10.06390069 0 3 C0 2.01 0 1.02 0 0 Z " fill="#1C2334" transform="translate(140,303)"/>
<path d="M0 0 C9.66706493 0.17151244 19.67516523 1.05479697 27.08203125 7.93359375 C30.14709727 11.73083011 31.30984096 14.04254467 31 19 C32.43666016 18.94779297 32.43666016 18.94779297 33.90234375 18.89453125 C42.30048375 18.69104974 50.09873903 19.25771585 58.32592773 21.02075195 C62.28673895 21.84169237 65.08333526 21.82746438 69 21 C72.3125 22.9375 72.3125 22.9375 75 25 C74.14454771 17.4580533 71.36917505 13.26868247 66 8 C69 8 69 8 70.5703125 9.4609375 C71.08335937 10.09257812 71.59640625 10.72421875 72.125 11.375 C72.90230469 12.31472656 72.90230469 12.31472656 73.6953125 13.2734375 C75.91294219 16.20814506 76.11425787 18.00194918 76.0625 21.625 C76.05347656 22.44226563 76.04445313 23.25953125 76.03515625 24.1015625 C76.02355469 24.72804688 76.01195312 25.35453125 76 26 C77.5778125 26.0928125 77.5778125 26.0928125 79.1875 26.1875 C85.46839638 26.93441741 91.19788023 29.60308772 97 32 C96.01 32.495 96.01 32.495 95 33 C94.34786708 35.02463255 94.34786708 35.02463255 94 37 C93.67 36.34 93.34 35.68 93 35 C93.495 34.01 93.495 34.01 94 33 C78.32167435 35.11262183 78.32167435 35.11262183 65 43 C64.01 42.505 64.01 42.505 63 42 C64.24687592 41.03760548 65.49764969 40.08025991 66.75 39.125 C67.44609375 38.59132813 68.1421875 38.05765625 68.859375 37.5078125 C72.99890706 34.59201072 76.79776608 33.46449146 81.75 32.375 C82.92046875 32.11460937 84.0909375 31.85421875 85.296875 31.5859375 C86.18890625 31.39257812 87.0809375 31.19921875 88 31 C78.00573512 28.10360938 68.08188253 25.45949123 57.84375 23.578125 C55 23 55 23 53 22 C53.0825 22.86625 53.165 23.7325 53.25 24.625 C52.88533166 29.5480226 50.88824619 32.17530056 47.375 35.5703125 C41.08524347 40.78556895 33.19578118 44 25 44 C25.375 42.0625 25.375 42.0625 26 40 C26.99 39.505 26.99 39.505 28 39 C28 39.66 28 40.32 28 41 C35.92497262 39.61627462 42.57806167 37.33419632 48.4375 31.625 C50.2851362 28.52097118 51.0601763 25.47449975 52 22 C40.24539998 27.87375756 40.24539998 27.87375756 30 36 C33.29955386 28.74098152 40.21835591 25.54152525 47 22 C39.84632256 20.94642622 32.72164104 20.67954401 25.5 20.4375 C23.69402344 20.37272461 23.69402344 20.37272461 21.8515625 20.30664062 C18.90113807 20.20126832 15.95063929 20.09914097 13 20 C13 19.67 13 19.34 13 19 C15.97 18.67 18.94 18.34 22 18 C21.24976563 17.75507813 20.49953125 17.51015625 19.7265625 17.2578125 C11.4320365 14.22832568 5.41166629 10.06390069 0 3 C0 2.01 0 1.02 0 0 Z " fill="#222232" transform="translate(140,303)"/>
<path d="M0 0 C1.32 0.33 2.64 0.66 4 1 C3.08635476 4.51402017 2.23265401 7.53920329 0.58984375 10.79296875 C-1.09678277 14.19523011 -2.37284495 17.60387835 -3.625 21.1875 C-4.05039063 22.39792969 -4.47578125 23.60835937 -4.9140625 24.85546875 C-6.31413864 28.90964606 -7.11809134 31.90696686 -7.0625 36.1875 C-7.05347656 37.08855469 -7.04445312 37.98960937 -7.03515625 38.91796875 C-7.02355469 39.60503906 -7.01195312 40.29210937 -7 41 C-5.68 41.66 -4.36 42.32 -3 43 C-3 43.99 -3 44.98 -3 46 C-10.26 46 -17.52 46 -25 46 C-25 45.01 -25 44.02 -25 43 C-23.63875 42.4121875 -23.63875 42.4121875 -22.25 41.8125 C-16.50800838 38.61023544 -14.11762233 33.64713793 -11.5 27.8125 C-11.19666748 27.14903564 -10.89333496 26.48557129 -10.58081055 25.80200195 C-8.22067193 20.59757755 -6.05368403 15.33252719 -4 10 C-3.25223108 8.12410911 -2.50225903 6.24909481 -1.75 4.375 C-1.24726563 3.11816406 -1.24726563 3.11816406 -0.734375 1.8359375 C-0.49203125 1.23007813 -0.2496875 0.62421875 0 0 Z " fill="#07080D" transform="translate(151,220)"/>
<path d="M0 0 C-0.83469546 3.9458331 -1.42357496 6.42357496 -4.3125 9.3125 C-10.39773271 13.13346007 -15.28087123 13.25420307 -22.3125 13.125 C-23.24384766 13.11597656 -24.17519531 13.10695313 -25.13476562 13.09765625 C-27.4234436 13.07418263 -29.71158672 13.04134729 -32 13 C-32.33 12.01 -32.66 11.02 -33 10 C-31.96875 9.5875 -30.9375 9.175 -29.875 8.75 C-27.33276129 7.68276315 -25.65044477 6.72717641 -23.4375 5 C-16.49461581 0.96050374 -7.96975546 -0.24298035 0 0 Z " fill="#837CB6" transform="translate(234,336)"/>
<path d="M0 0 C8.21671938 0.63205534 14.20321875 4.64636139 19.5 10.75 C23.14370592 15.56489711 24 19.01557715 24 25 C12.91812927 20.76281413 6.17721865 15.79289882 1 5 C0.33203125 2.1875 0.33203125 2.1875 0 0 Z " fill="#726FA3" transform="translate(191,303)"/>
<path d="M0 0 C8.3612191 0.28732712 17.01448752 0.81860244 23.6953125 6.421875 C26.35237442 9.36741793 27.65249529 12.06161323 28 16 C17.22937633 15.2656393 8.84114463 10.70221871 1.546875 2.890625 C0 1 0 1 0 0 Z " fill="#656EA1" transform="translate(142,305)"/>
<path d="M0 0 C-0.21732211 5.3243916 -1.33483937 8.44227393 -4.99609375 12.359375 C-10.68708076 17.01866261 -17.71661428 19.51444095 -25 20 C-22.85641609 11.8427942 -16.91321652 8.37714054 -9.96484375 4.15625 C-2.52476415 0 -2.52476415 0 0 0 Z " fill="#6F72A7" transform="translate(192,325)"/>
<path d="M0 0 C0.50946402 6.2409342 0.12584014 10.99582975 -4 16 C-8.49235983 20.60929762 -13.30831438 24.03558041 -19 27 C-17.07903744 18.82135639 -10.50900272 0 0 0 Z " fill="#556797" transform="translate(133,328)"/>
<path d="M0 0 C1.6015625 1.16796875 1.6015625 1.16796875 2.6015625 4.16796875 C-8.94896918 7.00826342 -17.88185273 7.72544782 -29.3984375 4.16796875 C-28.01531887 1.40173149 -26.4976005 1.21394489 -23.6484375 0.10546875 C-22.35679688 -0.40693359 -22.35679688 -0.40693359 -21.0390625 -0.9296875 C-13.41173613 -3.53606678 -7.22031412 -3.63803472 0 0 Z " fill="#516595" transform="translate(129.3984375,322.83203125)"/>
<path d="M0 0 C0.66 0.66 1.32 1.32 2 2 C1.36512756 3.54057312 0.73025513 5.08114624 0.09538269 6.62171936 C-0.47474621 8.00547628 -1.04471822 9.38929786 -1.61454773 10.7731781 C-3.19648718 14.61482585 -4.78054566 18.45557498 -6.36865234 22.29467773 C-9.22924253 29.21715974 -12.07560006 36.14094781 -14.79296875 43.12109375 C-15.39443726 44.65032471 -15.39443726 44.65032471 -16.00805664 46.21044922 C-16.73748484 48.07300226 -17.45469877 49.94039799 -18.15795898 51.81298828 C-18.47966064 52.62880371 -18.8013623 53.44461914 -19.1328125 54.28515625 C-19.53330811 55.33521851 -19.53330811 55.33521851 -19.94189453 56.40649414 C-21.35473532 58.53423107 -22.57184662 58.49725281 -25 59 C-22.83188579 52.1964576 -20.31834803 45.5694737 -17.65625 38.9453125 C-17.24588501 37.92194794 -16.83552002 36.89858337 -16.41271973 35.84420776 C-15.55025417 33.69729014 -14.68625791 31.55098686 -13.82080078 29.40527344 C-12.49673288 26.11688594 -11.18385023 22.8241666 -9.87109375 19.53125 C-9.02933063 17.43982842 -8.18690597 15.34867294 -7.34375 13.2578125 C-6.95304321 12.27346222 -6.56233643 11.28911194 -6.15979004 10.27493286 C-5.78930542 9.36323334 -5.4188208 8.45153381 -5.03710938 7.51220703 C-4.71528687 6.71106476 -4.39346436 5.90992249 -4.06188965 5.08450317 C-2.96683825 2.93490306 -1.79461196 1.59236901 0 0 Z " fill="#0D0E15" transform="translate(180,153)"/>
<path d="M0 0 C3 1 3 1 3.9831543 2.76586914 C4.3994812 3.88916626 4.3994812 3.88916626 4.82421875 5.03515625 C5.13037109 5.84404297 5.43652344 6.65292969 5.75195312 7.48632812 C6.06068359 8.33646484 6.36941406 9.18660156 6.6875 10.0625 C7.00783203 10.91650391 7.32816406 11.77050781 7.65820312 12.65039062 C8.44908493 14.76334351 9.2291202 16.87968513 10 19 C8.68 19 7.36 19 6 19 C5.34 17.35 4.68 15.7 4 14 C2.02 14 0.04 14 -2 14 C-2.66 15.65 -3.32 17.3 -4 19 C-5.32 18.67 -6.64 18.34 -8 18 C-7.51080078 17.05640625 -7.51080078 17.05640625 -7.01171875 16.09375 C-4.31620768 10.8140469 -1.96750019 5.59184265 0 0 Z " fill="#304363" transform="translate(97,269)"/>
<path d="M0 0 C4.66262416 1.16565604 5.3862319 2.24111785 8.25 5.9375 C8.95640625 6.83339844 9.6628125 7.72929687 10.390625 8.65234375 C12 11 12 11 12 13 C12.66 13 13.32 13 14 13 C13.85915204 11.20793453 13.71216299 9.41635083 13.5625 7.625 C13.48128906 6.62726563 13.40007812 5.62953125 13.31640625 4.6015625 C13.15034374 2.02072387 13.15034374 2.02072387 12 0 C13.32 0 14.64 0 16 0 C15.67 6.27 15.34 12.54 15 19 C9.4556962 13.4556962 9.4556962 13.4556962 7.3125 10.75 C5.2957678 7.98257806 5.2957678 7.98257806 3 7 C3.33 10.96 3.66 14.92 4 19 C3.01 19 2.02 19 1 19 C0.67 12.73 0.34 6.46 0 0 Z " fill="#10141E" transform="translate(114,269)"/>
<path d="M0 0 C4.29 0 8.58 0 13 0 C12.67 1.32 12.34 2.64 12 4 C12 3.34 12 2.68 12 2 C9.36 1.67 6.72 1.34 4 1 C4 3.31 4 5.62 4 8 C6.64 7.67 9.28 7.34 12 7 C11.67 8.32 11.34 9.64 11 11 C8.69 10.67 6.38 10.34 4 10 C4 12.64 4 15.28 4 18 C6.64 18 9.28 18 12 18 C12.33 17.01 12.66 16.02 13 15 C13.33 16.32 13.66 17.64 14 19 C9.71 19 5.42 19 1 19 C0.67 12.73 0.34 6.46 0 0 Z " fill="#282C41" transform="translate(152,269)"/>
<path d="M0 0 C1.32 0.33 2.64 0.66 4 1 C3.08746081 4.50976612 2.2364027 7.53244799 0.59375 10.78125 C-1.12170401 14.24579438 -2.41386752 17.72621506 -3.6875 21.375 C-4.12449219 22.62023437 -4.56148437 23.86546875 -5.01171875 25.1484375 C-5.33785156 26.08945313 -5.66398438 27.03046875 -6 28 C-6.66 27.34 -7.32 26.68 -8 26 C-8.66 26.33 -9.32 26.66 -10 27 C-8.47194733 21.35083558 -6.73234937 16.19564938 -3.984375 11.02734375 C-2.26769438 7.49179915 -1.14646981 3.75208301 0 0 Z " fill="#10131C" transform="translate(151,220)"/>
<path d="M0 0 C4.12638505 2.06319252 5.50114255 3.55148531 8.25 7.125 C8.95640625 8.03507812 9.6628125 8.94515625 10.390625 9.8828125 C11.18726563 10.93082031 11.18726563 10.93082031 12 12 C12 8.04 12 4.08 12 0 C12.66 0 13.32 0 14 0 C14 5.94 14 11.88 14 18 C9.47978795 13.47978795 5.85128115 9.05952622 2 4 C2 8.62 2 13.24 2 18 C1.34 18 0.68 18 0 18 C0 12.06 0 6.12 0 0 Z " fill="#30283B" transform="translate(293,270)"/>
<path d="M0 0 C0.66 0.33 1.32 0.66 2 1 C1.484375 1.680625 0.96875 2.36125 0.4375 3.0625 C-1.42730984 6.87319838 -1.05226753 8.9412538 0 13 C1.04374022 15.04451019 1.04374022 15.04451019 3 16 C6.12549017 16.25048636 6.12549017 16.25048636 9 16 C9.33 14.02 9.66 12.04 10 10 C10.99 10 11.98 10 13 10 C13.21718696 12.67863922 13.35440053 14.41628148 11.9375 16.75 C8.91942609 18.69714446 6.57293629 18.93944176 3 19 C-2.64179104 16.07462687 -2.64179104 16.07462687 -4 12 C-4.39849981 7.69620206 -4.46766201 5.68687857 -2 2.0625 C-1.34 1.381875 -0.68 0.70125 0 0 Z " fill="#201E2C" transform="translate(225,270)"/>
<path d="M0 0 C0.99 0 1.98 0 3 0 C3 5.61 3 11.22 3 17 C9.31483984 16.47434165 9.31483984 16.47434165 12 15 C12 15.99 12 16.98 12 18 C8.04 18 4.08 18 0 18 C0 12.06 0 6.12 0 0 Z " fill="#1E1F2E" transform="translate(175,270)"/>
<path d="M0 0 C9.60616082 0.17043189 19.86771141 0.97363106 27.08203125 8.0390625 C31 13.08562646 31 13.08562646 31 16 C30.34 16 29.68 16 29 16 C28.484375 14.9275 27.96875 13.855 27.4375 12.75 C24.60063801 7.85715442 20.82313417 5.77195075 15.5 4.31640625 C11.26577041 3.4027704 7.33866876 2.90735939 3 3 C3 3.99 3 4.98 3 6 C1.5 4.6875 1.5 4.6875 0 3 C0 2.01 0 1.02 0 0 Z " fill="#222435" transform="translate(140,303)"/>
<path d="M0 0 C0.99 0 1.98 0 3 0 C3.10845031 2.56364483 3.18749744 5.12266279 3.25 7.6875 C3.30027344 8.7693457 3.30027344 8.7693457 3.3515625 9.87304688 C3.42169941 13.71304251 3.22228636 15.61985099 1.234375 19.01953125 C-1 21 -1 21 -5 21 C-5 20.34 -5 19.68 -5 19 C-3.68 18.67 -2.36 18.34 -1 18 C-0.505 9.09 -0.505 9.09 0 0 Z " fill="#1C2131" transform="translate(140,270)"/>
<path d="M0 0 C0 0.99 0 1.98 0 3 C-6.36339546 8.99977286 -11.96660041 9.27835222 -20.3125 9.125 C-21.24384766 9.11597656 -22.17519531 9.10695313 -23.13476562 9.09765625 C-25.4234436 9.07418263 -27.71158672 9.04134729 -30 9 C-30.33 8.01 -30.66 7.02 -31 6 C-29.42412109 6.14308594 -29.42412109 6.14308594 -27.81640625 6.2890625 C-14.36118809 7.72175983 -14.36118809 7.72175983 -2.4375 2.375 C-1.633125 1.59125 -0.82875 0.8075 0 0 Z " fill="#252333" transform="translate(232,340)"/>
<path d="M0 0 C3 1 3 1 3.9831543 2.76586914 C4.26070557 3.51473389 4.53825684 4.26359863 4.82421875 5.03515625 C5.13037109 5.84404297 5.43652344 6.65292969 5.75195312 7.48632812 C6.06068359 8.33646484 6.36941406 9.18660156 6.6875 10.0625 C7.00783203 10.91650391 7.32816406 11.77050781 7.65820312 12.65039062 C8.44908493 14.76334351 9.2291202 16.87968513 10 19 C8.68 19 7.36 19 6 19 C4.99394407 16.39802798 3.99497475 13.79370638 3 11.1875 C2.57074219 10.08051758 2.57074219 10.08051758 2.1328125 8.95117188 C1.86210938 8.23896484 1.59140625 7.52675781 1.3125 6.79296875 C1.06113281 6.1383667 0.80976562 5.48376465 0.55078125 4.80932617 C0 3 0 3 0 0 Z " fill="#111823" transform="translate(97,269)"/>
<path d="M0 0 C0.99 0 1.98 0 3 0 C3 5.94 3 11.88 3 18 C2.01 18 1.02 18 0 18 C0 12.06 0 6.12 0 0 Z " fill="#1D1D2B" transform="translate(196,270)"/>
<path d="M0 0 C0 0.33 0 0.66 0 1 C-1.21816406 1.13277344 -2.43632812 1.26554687 -3.69140625 1.40234375 C-5.3151107 1.58066967 -6.93880825 1.75905843 -8.5625 1.9375 C-9.36236328 2.02451172 -10.16222656 2.11152344 -10.98632812 2.20117188 C-12.1706543 2.33168945 -12.1706543 2.33168945 -13.37890625 2.46484375 C-14.54897217 2.59221924 -14.54897217 2.59221924 -15.74267578 2.72216797 C-17.83376863 2.9795402 -19.89051134 3.32623339 -21.96484375 3.69140625 C-22.96644531 3.79324219 -23.96804687 3.89507812 -25 4 C-25.66 3.34 -26.32 2.68 -27 2 C-17.59939056 -0.27309819 -9.67459583 -1.49532859 0 0 Z " fill="#393F5E" transform="translate(160,323)"/>
<path d="M0 0 C3 1 3 1 3.9831543 2.67407227 C4.26070557 3.38104248 4.53825684 4.0880127 4.82421875 4.81640625 C5.13037109 5.58017578 5.43652344 6.34394531 5.75195312 7.13085938 C6.06068359 7.93330078 6.36941406 8.73574219 6.6875 9.5625 C7.00783203 10.36880859 7.32816406 11.17511719 7.65820312 12.00585938 C8.44877255 13.99998225 9.225685 15.99950948 10 18 C9.01 18 8.02 18 7 18 C6.01706733 15.75157909 5.03855534 13.50140453 4.0625 11.25 C3.78470703 10.61578125 3.50691406 9.9815625 3.22070312 9.328125 C1.89279106 6.25632842 0.65633833 3.28999974 0 0 Z " fill="#18131C" transform="translate(322,270)"/>
<path d="M0 0 C3.82852379 1.51761303 5.73321866 3.79343415 8.25 7 C8.95640625 7.886875 9.6628125 8.77375 10.390625 9.6875 C12 12 12 12 12 14 C12.66 14 13.32 14 14 14 C13.67 15.32 13.34 16.64 13 18 C10.82946228 15.19046806 8.66422709 12.37689511 6.5 9.5625 C5.87996094 8.76005859 5.25992187 7.95761719 4.62109375 7.13085938 C4.03457031 6.36708984 3.44804687 5.60332031 2.84375 4.81640625 C2.02680664 3.75595093 2.02680664 3.75595093 1.19335938 2.67407227 C0 1 0 1 0 0 Z " fill="#130E15" transform="translate(394,270)"/>
<path d="M0 0 C0 0.66 0 1.32 0 2 C-1.91666667 2.47916667 -3.83333333 2.95833333 -5.75 3.4375 C-6.81734375 3.70433594 -7.8846875 3.97117188 -8.984375 4.24609375 C-11.6875 4.921875 -11.6875 4.921875 -14.390625 5.59765625 C-14.92171875 5.73042969 -15.4528125 5.86320313 -16 6 C-16.33 5.01 -16.66 4.02 -17 3 C-14.73194205 2.30190555 -12.46133393 1.61628983 -10.1875 0.9375 C-9.54490234 0.73833984 -8.90230469 0.53917969 -8.24023438 0.33398438 C-3.33984375 -1.11328125 -3.33984375 -1.11328125 0 0 Z " fill="#0D0B10" transform="translate(298,210)"/>
<path d="M0 0 C0.66 0 1.32 0 2 0 C2.49371094 1.13179688 2.98742187 2.26359375 3.49609375 3.4296875 C4.14320148 4.91147042 4.79033841 6.3932406 5.4375 7.875 C5.92573242 8.99455078 5.92573242 8.99455078 6.42382812 10.13671875 C6.73642578 10.85214844 7.04902344 11.56757813 7.37109375 12.3046875 C7.65911865 12.96452637 7.94714355 13.62436523 8.24389648 14.30419922 C8.79932312 15.54991875 9.39003018 16.78006037 10 18 C8.68 18 7.36 18 6 18 C4.99600476 15.37646482 3.99665555 12.75132205 3 10.125 C2.57074219 9.00544922 2.57074219 9.00544922 2.1328125 7.86328125 C0 2.2265625 0 2.2265625 0 0 Z " fill="#120E15" transform="translate(376,270)"/>
<path d="M0 0 C0.33 0.5775 0.66 1.155 1 1.75 C3.06553478 4.07372663 4.33978668 4.71460168 7.125 5.9375 C9.2578125 6.91796875 9.2578125 6.91796875 11 8 C12 10.75 12 10.75 12 13 C11.01 13.495 11.01 13.495 10 14 C9.443125 12.8553125 9.443125 12.8553125 8.875 11.6875 C6.62952954 8.46899235 4.55233097 7.54449173 1 6 C0 5 0 5 -0.0625 2.4375 C-0.041875 1.633125 -0.02125 0.82875 0 0 Z " fill="#14111A" transform="translate(272,272)"/>
<path d="M0 0 C0.99 0.33 1.98 0.66 3 1 C4.19864128 3.52268786 5.22406621 5.9529028 6.1875 8.5625 C6.46013672 9.27341797 6.73277344 9.98433594 7.01367188 10.71679688 C7.68590073 12.4740267 8.34427492 14.23654518 9 16 C8.34 16.66 7.68 17.32 7 18 C3.85180745 12.13784836 1.73624758 6.4188547 0 0 Z " fill="#110D13" transform="translate(347,270)"/>
<path d="M0 0 C0.99 0 1.98 0 3 0 C4.98 5.28 6.96 10.56 9 16 C8.34 16.66 7.68 17.32 7 18 C4.69 12.06 2.38 6.12 0 0 Z " fill="#100D13" transform="translate(339,270)"/>
<path d="M0 0 C1.32 1.65 2.64 3.3 4 5 C3.34 5 2.68 5 2 5 C2.33 8.96 2.66 12.92 3 17 C2.01 17 1.02 17 0 17 C0 11.39 0 5.78 0 0 Z " fill="#39486A" transform="translate(115,271)"/>
<path d="M0 0 C0.66 0.66 1.32 1.32 2 2 C-0.24732102 2.84124316 -2.49738785 3.67314832 -4.75 4.5 C-5.70132813 4.85771484 -5.70132813 4.85771484 -6.671875 5.22265625 C-10.03286607 6.44801758 -12.36871587 7 -16 7 C-15.625 5.0625 -15.625 5.0625 -15 3 C-14.34 2.67 -13.68 2.34 -13 2 C-13 2.66 -13 3.32 -13 4 C-11.58194169 3.71517632 -10.16559621 3.42181856 -8.75 3.125 C-7.96109375 2.96257812 -7.1721875 2.80015625 -6.359375 2.6328125 C-4.03168856 2.00849925 -2.10968048 1.15161458 0 0 Z " fill="#2A2D42" transform="translate(181,340)"/>
<path d="M0 0 C0.66 0 1.32 0 2 0 C2.06058594 0.97582031 2.12117187 1.95164062 2.18359375 2.95703125 C2.26738281 4.22933594 2.35117188 5.50164062 2.4375 6.8125 C2.51871094 8.07707031 2.59992188 9.34164063 2.68359375 10.64453125 C2.87184547 13.99181893 2.87184547 13.99181893 4 17 C2.68 16.34 1.36 15.68 0 15 C0 10.05 0 5.1 0 0 Z " fill="#060608" transform="translate(248,270)"/>
<path d="M0 0 C4.21912747 0.4794463 6.79663178 1.16625119 10 4 C7.23723823 3.47731534 4.6739124 2.89130413 2 2 C2.37253906 2.62648438 2.74507812 3.25296875 3.12890625 3.8984375 C3.60199219 4.71570313 4.07507813 5.53296875 4.5625 6.375 C5.27599609 7.59316406 5.27599609 7.59316406 6.00390625 8.8359375 C6.33261719 9.55007813 6.66132813 10.26421875 7 11 C6.67 11.66 6.34 12.32 6 13 C0.44419134 4.738041 0.44419134 4.738041 0 0 Z " fill="#232334" transform="translate(191,303)"/>
<path d="M0 0 C4.29 0.33 8.58 0.66 13 1 C9.3558226 3.4294516 7.28758728 3.16179575 3 3 C3 3.99 3 4.98 3 6 C1.5 4.6875 1.5 4.6875 0 3 C0 2.01 0 1.02 0 0 Z " fill="#292F45" transform="translate(140,303)"/>
<path d="M0 0 C0.99 0 1.98 0 3 0 C3.21718696 2.67863922 3.35440053 4.41628148 1.9375 6.75 C-0.89753909 8.57905748 -3.68800975 8.68754809 -7 9 C-4.8614515 6.8614515 -3.86724686 6.57344937 -1 6 C-0.67 4.02 -0.34 2.04 0 0 Z " fill="#39354E" transform="translate(235,280)"/>
<path d="M0 0 C0.66 0.33 1.32 0.66 2 1 C2.625 4.0625 2.625 4.0625 3 7 C1.35 7 -0.3 7 -2 7 C-1.34 4.69 -0.68 2.38 0 0 Z " fill="#CB9CE4" transform="translate(376,273)"/>
<path d="M0 0 C0.66 0.33 1.32 0.66 2 1 C2.625 4.0625 2.625 4.0625 3 7 C1.35 7 -0.3 7 -2 7 C-1.34 4.69 -0.68 2.38 0 0 Z " fill="#435C88" transform="translate(97,273)"/>
<path d="M0 0 C1.5 1.25 1.5 1.25 3 3 C3 4.32 3 5.64 3 7 C1.35 7 -0.3 7 -2 7 C-1.34 4.69 -0.68 2.38 0 0 Z " fill="#B190D3" transform="translate(322,273)"/>
<path d="M0 0 C1.32 0.33 2.64 0.66 4 1 C3.34 3.31 2.68 5.62 2 8 C1.34 7.34 0.68 6.68 0 6 C-0.99 6.495 -0.99 6.495 -2 7 C-1.34 4.69 -0.68 2.38 0 0 Z " fill="#191C2A" transform="translate(151,220)"/>
<path d="M0 0 C1.32 0 2.64 0 4 0 C3.67 4.95 3.34 9.9 3 15 C2.34 15 1.68 15 1 15 C1.01160156 14.08476562 1.02320312 13.16953125 1.03515625 12.2265625 C1.04417969 11.03804688 1.05320312 9.84953125 1.0625 8.625 C1.07410156 7.44164062 1.08570312 6.25828125 1.09765625 5.0390625 C1.21466593 2.08078479 1.21466593 2.08078479 0 0 Z " fill="#2F3954" transform="translate(126,269)"/>
<path d="M0 0 C0.66 0 1.32 0 2 0 C3.32 2.97 4.64 5.94 6 9 C5.01 9 4.02 9 3 9 C2.01 6.03 1.02 3.06 0 0 Z " fill="#0F0C12" transform="translate(326,279)"/>
<path d="M0 0 C0.66 0.66 1.32 1.32 2 2 C1.34 3.65 0.68 5.3 0 7 C-0.99 7 -1.98 7 -3 7 C-3.33 6.34 -3.66 5.68 -4 5 C-2.52830189 1.26415094 -2.52830189 1.26415094 0 0 Z " fill="#13141D" transform="translate(180,153)"/>
<path d="M0 0 C-2.79908133 2.79908133 -5.13081763 2.72362983 -9 3 C-9.66 2.34 -10.32 1.68 -11 1 C-7.32589215 -0.17571451 -3.83070817 -0.07366746 0 0 Z " fill="#2B324A" transform="translate(144,324)"/>
<path d="M0 0 C3.05082939 1.01694313 3.90372675 1.72144212 6 4 C6.66 4.66 7.32 5.32 8 6 C2.25 5.25 2.25 5.25 0 3 C0 2.01 0 1.02 0 0 Z " fill="#1A1824" transform="translate(222,282)"/>
<path d="M0 0 C1.8125 0.1875 1.8125 0.1875 4 1 C5.75 3.5625 5.75 3.5625 7 6 C5.0625 5.6875 5.0625 5.6875 3 5 C2.67 4.01 2.34 3.02 2 2 C1.34 2 0.68 2 0 2 C0 1.34 0 0.68 0 0 Z " fill="#161C29" transform="translate(114,269)"/>
<path d="M0 0 C3.63 0.33 7.26 0.66 11 1 C11 1.33 11 1.66 11 2 C7.7 2.33 4.4 2.66 1 3 C0.67 2.01 0.34 1.02 0 0 Z " fill="#3D3B57" transform="translate(201,346)"/>
<path d="M0 0 C0.33 0 0.66 0 1 0 C1 2.31 1 4.62 1 7 C-1.875 7.125 -1.875 7.125 -5 7 C-5.66 6.34 -6.32 5.68 -7 5 C-4 4 -4 4 -1.8125 4.9375 C-1.214375 5.288125 -0.61625 5.63875 0 6 C0 4.02 0 2.04 0 0 Z " fill="#0F0E15" transform="translate(215,322)"/>
</svg>
